<?xml version="1.0" encoding="UTF-8"?>
<svg version="1.1" xmlns="http://www.w3.org/2000/svg" width="1755" height="1755">
<path d="M0 0 C579.15 0 1158.3 0 1755 0 C1755 579.15 1755 1158.3 1755 1755 C1175.85 1755 596.7 1755 0 1755 C0 1175.85 0 596.7 0 0 Z " fill="#345C50" transform="translate(0,0)"/>
<path d="M0 0 C579.15 0 1158.3 0 1755 0 C1755 579.15 1755 1158.3 1755 1755 C1175.85 1755 596.7 1755 0 1755 C0 1175.85 0 596.7 0 0 Z M475.5625 239.6875 C474.37277588 239.94096191 473.18305176 240.19442383 471.95727539 240.45556641 C425.59614468 250.6560554 382.4366144 270.79060617 345 300 C344.18789063 300.63035156 343.37578125 301.26070313 342.5390625 301.91015625 C328.23914784 313.17885923 314.44435821 325.14868578 302.65234375 339.07421875 C301.46588158 340.45702217 300.24530006 341.81082244 299.00390625 343.14453125 C292.03593239 350.6341716 286.0015499 358.73328179 280 367 C279.2265625 368.06089844 278.453125 369.12179687 277.65625 370.21484375 C267.96188452 383.8607169 259.44549118 398.20913944 252.62109375 413.49609375 C251 417 251 417 249.44140625 419.5703125 C247.74482394 422.43013417 246.64642342 425.3179055 245.5 428.4375 C244.28326912 431.74061236 243.05362511 434.89424693 241.4609375 438.03515625 C239.99978828 441.00042966 239.03953175 443.82746507 238.125 447 C236.70158551 451.80128656 235.11592789 456.49211507 233.375 461.1875 C230.65794783 468.70328431 228.57582997 475.94076939 229 484 C228.34 484 227.68 484 227 484 C226.86722656 484.99902344 226.73445312 485.99804688 226.59765625 487.02734375 C226.42105469 488.31769531 226.24445313 489.60804688 226.0625 490.9375 C225.80146484 492.86916016 225.80146484 492.86916016 225.53515625 494.83984375 C225 498 225 498 224 499 C222.5509649 505.92316771 222.91211942 512.9597887 223 520 C222.34 520 221.68 520 221 520 C219.15035951 536.36153113 218.70891433 552.53746706 218.74306489 568.99453617 C218.74821597 572.56987492 218.74158829 576.14519735 218.73657823 579.72053367 C218.72940795 585.96444238 218.72954094 592.2083164 218.73467255 598.45222664 C218.74228272 607.73746814 218.73834677 617.02268075 218.73225593 626.3079221 C218.72175795 642.89694304 218.72262374 659.48594852 218.72841376 676.07497092 C218.73345503 690.590879 218.73475354 705.10678143 218.73236847 719.6226902 C218.7322157 720.58747696 218.73206293 721.55226371 218.73190553 722.54628643 C218.7312828 726.4631401 218.730646 730.37999377 218.729986 734.29684744 C218.72387554 770.99821784 218.72940321 807.69957842 218.7401798 844.4009473 C218.74967244 876.97734578 218.74881897 909.55372861 218.73925781 942.13012695 C218.72853952 978.77109718 218.72430672 1015.41205874 218.73048234 1052.05303031 C218.73112373 1055.9616059 218.73174941 1059.8701815 218.73236847 1063.7787571 C218.73252662 1064.74107524 218.73268478 1065.70339338 218.73284773 1066.69487267 C218.73511872 1081.2004557 218.73246955 1095.70603245 218.72740936 1110.21161461 C218.72168267 1126.70956582 218.72313804 1143.20749923 218.73397085 1159.70544823 C218.73982784 1168.92865195 218.74024933 1178.15181706 218.7326785 1187.37501975 C218.72817308 1193.54642258 218.73102194 1199.71779465 218.73968804 1205.88919294 C218.74441597 1209.39806496 218.74613484 1212.90686064 218.73887607 1216.41573008 C218.71518038 1231.08581816 219.03814049 1245.45212841 221 1260 C221.16530708 1261.2889244 221.33061416 1262.5778488 221.50093055 1263.90583152 C221.92614944 1267.17204204 222.39037843 1270.42960198 222.875 1273.6875 C223.04644531 1274.8410498 223.21789062 1275.99459961 223.39453125 1277.18310547 C224.5519437 1284.70311827 226.01196284 1292.00726394 228.015625 1299.34375 C228.70164856 1301.89183751 229.31757057 1304.39205796 229.859375 1306.96875 C236.58202373 1338.66016441 251.40840257 1369.96755656 269 1397 C269.80639415 1398.26797197 270.61239365 1399.53619501 271.41796875 1400.8046875 C279.7962504 1413.83167456 289.26938931 1426.33392448 299.83984375 1437.6640625 C301.69461447 1439.66976393 303.48433905 1441.71021291 305.26953125 1443.77734375 C308.94430804 1447.98828051 312.79640648 1451.98872148 316.75 1455.9375 C317.44955811 1456.63625244 318.14911621 1457.33500488 318.86987305 1458.05493164 C324.31474222 1463.43603038 329.96376812 1468.28879463 336 1473 C337.77254217 1474.47711847 339.54333486 1475.95633849 341.3125 1477.4375 C361.63663088 1494.00639655 384.83659394 1508.74992542 409 1519 C410.04929687 1519.46792969 411.09859375 1519.93585938 412.1796875 1520.41796875 C421.29432104 1524.43791484 430.57241219 1527.79899474 440 1531 C440.71696045 1531.24967529 441.4339209 1531.49935059 442.17260742 1531.7565918 C454.76433042 1536.07953441 467.93550228 1538.72203235 481 1541.1875 C481.79108154 1541.34210693 482.58216309 1541.49671387 483.3972168 1541.65600586 C502.29475309 1545.08396569 521.33511032 1545.29561725 540.48030266 1545.25693511 C544.14497868 1545.25179197 547.80963861 1545.25840873 551.47431225 1545.26342177 C557.87689551 1545.27059789 564.27944496 1545.27045538 570.68202972 1545.26532745 C580.20371523 1545.25772238 589.72537252 1545.26165075 599.24705786 1545.26774407 C616.2606305 1545.27824736 633.27418807 1545.27737383 650.28776213 1545.27158624 C665.18145116 1545.26654503 680.07513468 1545.26524641 694.96882439 1545.26763153 C695.95871435 1545.2677843 696.94860431 1545.26793707 697.96849094 1545.26809447 C701.98736678 1545.26871721 706.00624262 1545.26935401 710.02511846 1545.270014 C747.69413487 1545.2761262 785.36314171 1545.27059488 823.03215664 1545.2598202 C856.44763104 1545.25033481 889.86309019 1545.2511746 923.27856445 1545.26074219 C960.8703578 1545.27146971 998.46214271 1545.2756875 1036.05393738 1545.26951766 C1040.06744667 1545.26887629 1044.08095596 1545.2682506 1048.09446526 1545.26763153 C1049.08260295 1545.26747338 1050.07074064 1545.26731522 1051.0888219 1545.26715227 C1065.96280236 1545.26488434 1080.83677669 1545.26752486 1095.7107563 1545.27259064 C1112.64106026 1545.27832821 1129.57134686 1545.27683933 1146.50164867 1545.26602915 C1155.95846372 1545.26018883 1165.41524113 1545.25972611 1174.87205515 1545.2673215 C1181.21069946 1545.27184765 1187.54931397 1545.26894151 1193.88795391 1545.26031196 C1197.48498184 1545.2556119 1201.08193572 1545.25380451 1204.67896099 1545.26112393 C1218.5545592 1545.28716497 1232.35966315 1545.07034381 1246.20602322 1544.10912704 C1247.89302889 1543.99289215 1247.89302889 1543.99289215 1249.61411548 1543.87430908 C1258.86221574 1543.15951954 1267.8467741 1541.61784495 1276.87036133 1539.49707031 C1279.06183263 1538.9855679 1281.26013915 1538.5164424 1283.4609375 1538.046875 C1288.18821533 1536.99670934 1292.80667704 1535.66078453 1297.4375 1534.25 C1298.30511963 1533.98614502 1299.17273926 1533.72229004 1300.06665039 1533.45043945 C1302.71317439 1532.64018076 1305.35693168 1531.82145362 1308 1531 C1308.77085938 1530.76265137 1309.54171875 1530.52530273 1310.3359375 1530.28076172 C1338.48647514 1521.54545234 1364.57339485 1508.37871465 1389 1492 C1389.59071289 1491.60458008 1390.18142578 1491.20916016 1390.79003906 1490.80175781 C1399.55288765 1484.91653009 1407.93945654 1478.83136968 1416 1472 C1417.05291926 1471.14105703 1418.1076802 1470.2843678 1419.1640625 1469.4296875 C1420.23440859 1468.55733288 1421.30472179 1467.68493791 1422.375 1466.8125 C1423.33148437 1466.03519531 1424.28796875 1465.25789063 1425.2734375 1464.45703125 C1427.32146698 1462.61145741 1428.94824009 1460.93792231 1430.6640625 1458.82421875 C1433 1456 1433 1456 1436 1454 C1436 1453.34 1436 1452.68 1436 1452 C1436.66 1452 1437.32 1452 1438 1452 C1438 1451.34 1438 1450.68 1438 1450 C1438.66 1450 1439.32 1450 1440 1450 C1440 1449.34 1440 1448.68 1440 1448 C1440.66 1448 1441.32 1448 1442 1448 C1442 1447.34 1442 1446.68 1442 1446 C1442.66 1446 1443.32 1446 1444 1446 C1444 1445.34 1444 1444.68 1444 1444 C1444.66 1444 1445.32 1444 1446 1444 C1448.54755287 1441.53507047 1450.73999521 1438.72774273 1453 1436 C1453.73863281 1435.113125 1454.47726562 1434.22625 1455.23828125 1433.3125 C1459.26307686 1429.13327931 1459.26307686 1429.13327931 1461 1424 C1461.99 1423.67 1462.98 1423.34 1464 1423 C1465.66460017 1420.92738061 1467.18673143 1418.87354577 1468.6875 1416.6875 C1469.12811768 1416.05739014 1469.56873535 1415.42728027 1470.02270508 1414.77807617 C1474.10642553 1408.91311929 1478.09431511 1402.98491171 1482 1397 C1482.60714844 1396.07445312 1483.21429687 1395.14890625 1483.83984375 1394.1953125 C1488.56377886 1386.89750465 1492.79996362 1379.40007275 1496.6875 1371.625 C1498 1369 1498 1369 1499.5625 1366.6875 C1501.55563707 1362.96120027 1502.2350899 1359.13051457 1503 1355 C1503.66 1355 1504.32 1355 1505 1355 C1505.21914062 1354.3915625 1505.43828125 1353.783125 1505.6640625 1353.15625 C1507.78945402 1347.28118401 1509.94538006 1341.41763619 1512.125 1335.5625 C1512.37846191 1334.87671875 1512.63192383 1334.1909375 1512.89306641 1333.484375 C1513.87172922 1330.86427179 1514.84071252 1328.30384632 1516.140625 1325.82421875 C1517.18580933 1323.60557746 1517.41005002 1321.68609977 1517.625 1319.25 C1517.69976563 1318.45078125 1517.77453125 1317.6515625 1517.8515625 1316.828125 C1517.90054687 1316.22484375 1517.94953125 1315.6215625 1518 1315 C1518.66 1315 1519.32 1315 1520 1315 C1520.17390259 1314.09906616 1520.17390259 1314.09906616 1520.35131836 1313.17993164 C1520.87606471 1310.47333141 1521.40670147 1307.76791952 1521.9375 1305.0625 C1522.21110352 1303.64420898 1522.21110352 1303.64420898 1522.49023438 1302.19726562 C1522.75610352 1300.84858398 1522.75610352 1300.84858398 1523.02734375 1299.47265625 C1523.27085571 1298.22367554 1523.27085571 1298.22367554 1523.51928711 1296.94946289 C1524 1295 1524 1295 1525 1294 C1525.23653523 1291.47403741 1525.42173692 1288.96892793 1525.5625 1286.4375 C1525.60568359 1285.72658203 1525.64886719 1285.01566406 1525.69335938 1284.28320312 C1525.79971777 1282.52238088 1525.90038846 1280.7612168 1526 1279 C1526.66 1279 1527.32 1279 1528 1279 C1529.43734283 1270.9480892 1530.21633167 1262.97892808 1530.55720806 1254.81671047 C1530.59902678 1253.82314042 1530.6408455 1252.82957037 1530.68393145 1251.80589214 C1531.15794504 1239.39998752 1531.15027323 1226.99275185 1531.14707164 1214.57948406 C1531.14724426 1210.95904371 1531.15318447 1207.33861145 1531.1583125 1203.71817535 C1531.16754669 1196.5699488 1531.1715448 1189.42172842 1531.17383147 1182.27349666 C1531.17681764 1173.69785332 1531.18552852 1165.12221799 1531.19424575 1156.54657891 C1531.2149888 1135.83402974 1531.22554224 1115.12147923 1531.23437535 1094.40892211 C1531.23859473 1084.59647944 1531.2438148 1074.78403737 1531.24905988 1064.97159521 C1531.26693756 1031.33154941 1531.28193185 997.69150342 1531.28938007 964.05145359 C1531.28985482 961.94373013 1531.2903307 959.83600668 1531.29080774 957.72828322 C1531.29104411 956.68314011 1531.29128049 955.637997 1531.29152403 954.56118289 C1531.29272511 949.26678143 1531.2939406 943.97237997 1531.29516602 938.67797852 C1531.29552624 937.10200706 1531.29552624 937.10200706 1531.29589374 935.4941978 C1531.30378541 901.4352795 1531.32722098 867.37639603 1531.35972196 833.31749294 C1531.39408471 797.24126481 1531.41373689 761.16505705 1531.41702431 725.08881229 C1531.4174418 721.12244506 1531.41792136 717.15607784 1531.41844749 713.18971062 C1531.41857069 712.21320082 1531.41869388 711.23669102 1531.4188208 710.23059002 C1531.42114413 694.57697602 1531.43675455 678.92340284 1531.45728934 663.26980334 C1531.47762911 647.51408586 1531.4829862 631.75841695 1531.47351871 616.00268877 C1531.46833625 606.66663169 1531.47402566 597.33073736 1531.49605338 587.99470398 C1531.50970242 581.73152686 1531.50836228 575.46845999 1531.49565142 569.20528141 C1531.4888472 565.65460045 1531.48775724 562.10422724 1531.50521151 558.55357558 C1531.69089829 512.09262676 1522.88918347 466.55974074 1504 424 C1503.61618164 423.13068848 1503.23236328 422.26137695 1502.83691406 421.36572266 C1491.69841734 396.41307867 1477.11789489 373.27246846 1460 352 C1459.18015625 350.97390625 1458.3603125 349.9478125 1457.515625 348.890625 C1450.95540115 340.88161421 1443.73134302 333.52165669 1436.4375 326.1875 C1435.95471588 325.69944885 1435.47193176 325.21139771 1434.97451782 324.70855713 C1428.33047939 318.00854664 1421.39168964 311.86673157 1414 306 C1412.75664101 304.97565132 1411.51542421 303.9486911 1410.27734375 302.91796875 C1357.29556249 259.37108595 1286.87767408 233.75881922 1218.30658436 233.86857224 C1217.09218671 233.8665196 1215.87778905 233.86446697 1214.62659147 233.86235213 C1211.28112323 233.85769969 1207.93570917 233.85744715 1204.59024178 233.85912972 C1200.94073038 233.85986621 1197.29122596 233.85482534 1193.64171761 233.8505547 C1186.41462893 233.84300455 1179.18754765 233.84078317 1171.96045544 233.84022565 C1163.29877047 233.83930904 1154.63709227 233.8326327 1145.97541024 233.82587883 C1125.04386026 233.80984656 1104.11231103 233.80391859 1083.18075602 233.79913008 C1073.27100036 233.79679123 1063.36124527 233.79318825 1053.45149006 233.7894347 C1019.50303982 233.77660132 985.55458989 233.76588222 951.60613728 233.7624321 C949.476496 233.76221047 947.34685473 233.76198868 945.21721346 233.76176675 C943.08254622 233.76154611 940.94787898 233.76132563 938.81321174 233.7611053 C934.53099207 233.76066276 930.2487724 233.76021564 925.96655273 233.75976562 C924.37394983 233.75960154 924.37394983 233.75960154 922.74917313 233.75943414 C888.33898358 233.75580524 853.92881512 233.7398904 819.51863363 233.71657526 C783.10447108 233.69194758 746.69032057 233.67825789 710.27614945 233.67706418 C706.2743471 233.67689274 702.27254476 233.67667731 698.27074242 233.67642975 C697.28544733 233.67637398 696.30015224 233.67631821 695.28499972 233.67626075 C679.46786895 233.67511284 663.65075992 233.664113 647.83363647 233.64954269 C631.91773784 233.63513558 616.0018669 233.63196441 600.08596352 233.63998267 C590.64652218 233.64441917 581.20717062 233.64065817 571.76774118 233.62474416 C565.44295139 233.61492221 559.1182238 233.61624043 552.79343445 233.62618039 C549.20250711 233.63152101 545.61175088 233.63245245 542.02083842 233.61967167 C519.61520556 233.54493252 497.50743799 234.92128427 475.5625 239.6875 Z " fill="#062F2F" transform="translate(0,0)"/>
<path d="M0 0 C1.11629838 -0.00694553 2.23259677 -0.01389106 3.38272238 -0.02104706 C7.10126158 -0.03925728 10.81915849 -0.0290689 14.53771973 -0.01878357 C17.21261049 -0.025845 19.88745653 -0.03445489 22.56233215 -0.04489136 C29.06016715 -0.06647345 35.55782662 -0.06641955 42.05568564 -0.05826581 C47.33903607 -0.05195273 52.62233551 -0.0531148 57.90568542 -0.05953789 C58.65911692 -0.06043954 59.41254841 -0.0613412 60.18881115 -0.06227018 C61.71963951 -0.06412147 63.25046786 -0.06598403 64.78129619 -0.06785773 C79.1185126 -0.08441573 93.45563044 -0.07573375 107.7928409 -0.05887216 C120.89641815 -0.04417391 133.99976613 -0.05880881 147.10331386 -0.08764232 C160.57571157 -0.11706553 174.04800357 -0.12800028 187.520432 -0.11846012 C189.0454664 -0.11743762 190.57050083 -0.11644301 192.09553528 -0.11547661 C192.84578038 -0.11500022 193.59602549 -0.11452383 194.36900529 -0.114033 C199.64286964 -0.1118729 204.91663341 -0.12165127 210.19047546 -0.13624763 C216.62211203 -0.15380102 223.05345631 -0.15361067 229.48508155 -0.13089598 C232.76347892 -0.11978115 236.04125783 -0.11925011 239.31965065 -0.13519669 C242.88066255 -0.15114564 246.44027443 -0.1361562 250.0012207 -0.11352539 C251.02749998 -0.12536112 252.05377925 -0.13719685 253.11115789 -0.14939123 C261.57228509 -0.04044203 267.87692874 2.57196665 274.43664551 7.89894104 C275.21314453 8.70798889 275.98964355 9.51703674 276.78967285 10.3506012 C277.66881348 11.25036682 278.5479541 12.15013245 279.45373535 13.0771637 C280.3354541 14.0052887 281.21717285 14.9334137 282.12561035 15.8896637 C283.90708967 17.73310751 285.69090548 19.57429655 287.47717285 21.4131012 C288.6385376 22.63005676 288.6385376 22.63005676 289.82336426 23.87159729 C291.88691445 25.90880269 293.95767739 27.79363583 296.15441895 29.67726135 C300.8616356 33.75573036 305.23795602 38.13792741 309.62094116 42.55982971 C311.09992944 44.05180613 312.58221537 45.54043923 314.06530762 47.02833557 C317.74508422 50.72134524 321.41933663 54.41983482 325.09375 58.11817932 C328.21106664 61.25536673 331.33052123 64.39039972 334.45272827 67.52272034 C335.89926104 68.97564278 337.34270202 70.4315865 338.78601074 71.88771057 C343.24369748 76.36185819 347.7524087 80.67273035 352.54528809 84.78419495 C356.29983197 88.10698269 359.78842613 91.7017363 363.31311035 95.2646637 C364.53284546 96.49007874 364.53284546 96.49007874 365.77722168 97.74024963 C369.22238375 101.20161412 372.66151325 104.6689496 376.10119629 108.13575745 C378.62807543 110.68081557 381.1580235 113.22279501 383.68811035 115.7646637 C384.83533569 116.92433655 384.83533569 116.92433655 386.0057373 118.10743713 C390.12338466 122.243606 394.33165975 126.19449079 398.75460815 130.00242615 C402.43625137 133.19115014 405.85857031 136.64701582 409.31311035 140.0771637 C410.0627002 140.80612854 410.81229004 141.53509338 411.58459473 142.28614807 C415.40848498 146.08270042 418.54763326 149.38134445 420.50061035 154.5146637 C420.50061035 155.1746637 420.50061035 155.8346637 420.50061035 156.5146637 C421.16061035 156.5146637 421.82061035 156.5146637 422.50061035 156.5146637 C424.36327213 162.05830132 424.7974507 166.93431196 424.7911377 172.76026917 C424.80121353 174.11072578 424.80121353 174.11072578 424.81149292 175.48846436 C424.83042314 178.45298355 424.83439576 181.41727537 424.83654785 184.3818512 C424.84298325 186.46104522 424.84971216 188.54023836 424.85671997 190.61943054 C424.86868326 194.97873529 424.87240217 199.33796089 424.87121582 203.69728088 C424.87101362 209.2389774 424.89821781 214.78015541 424.93276024 220.32172966 C424.95519021 224.62018585 424.95904834 228.9185209 424.95799637 233.21702957 C424.96033196 235.2572367 424.96903796 237.29744824 424.9846611 239.33759689 C425.16636081 265.53467885 418.81653068 290.80825518 400.01867676 310.08058167 C393.66179003 316.08578473 381.31112092 326.5146637 372.50061035 326.5146637 C372.50521932 327.5958164 372.50982828 328.67696911 372.51457691 329.79088402 C372.62582613 356.15963731 372.70785806 382.52835999 372.75967121 408.89729881 C372.78539693 421.64939618 372.82043946 434.40133805 372.87780762 447.15333557 C372.92781532 458.27457528 372.95994224 469.39570231 372.97105283 480.51705134 C372.97754222 486.39977327 372.99267588 492.28217297 373.02926064 498.16479111 C373.06349492 503.715052 373.07360845 509.26486151 373.06614876 514.81521797 C373.06751114 516.8395045 373.07727844 518.86380798 373.09663773 520.8880024 C373.24107465 536.78581593 371.68213074 552.64325271 362.87561035 566.3896637 C362.448125 567.08253479 362.02063965 567.77540588 361.5802002 568.48927307 C351.80218053 583.83597254 338.38821657 594.73337104 321.50061035 601.5146637 C320.34818848 601.99032776 320.34818848 601.99032776 319.17248535 602.4756012 C307.86873643 606.70404061 295.48026738 606.81009801 283.56816101 606.78208923 C282.1162619 606.78583592 280.66436481 606.79044145 279.21247083 606.79581988 C275.26354454 606.80793912 271.31470366 606.80780267 267.36576307 606.80543113 C263.09092075 606.80502014 258.8161048 606.81608865 254.54127502 606.82554626 C246.18211408 606.84209515 237.82298136 606.84765299 229.4638054 606.84877102 C222.66460535 606.84972419 215.86541454 606.85384787 209.06621742 606.86017227 C189.75623308 606.87776627 170.44627089 606.88701377 151.13627847 606.88551132 C149.57771772 606.88539146 149.57771772 606.88539146 147.9876709 606.88526917 C146.9473508 606.8851874 145.9070307 606.88510564 144.83518574 606.8850214 C127.97635448 606.88420853 111.11761257 606.90335135 94.25880715 606.9315459 C76.91597517 606.9603194 59.57318672 606.97408381 42.23033029 606.97235835 C32.50653925 606.9716961 22.78284194 606.97711616 13.05907249 606.99871445 C4.78106758 607.01698491 -3.49680108 607.02122546 -11.7748175 607.0076956 C-15.99169614 607.00119606 -20.20831379 607.00093876 -24.42516708 607.0184021 C-63.56277238 607.17042084 -63.56277238 607.17042084 -78.99938965 598.7021637 C-79.65826172 598.35524475 -80.31713379 598.00832581 -80.99597168 597.65089417 C-86.2905957 594.79009978 -91.04287754 591.57597567 -95.49938965 587.5146637 C-96.30634277 586.79923401 -97.1132959 586.08380432 -97.94470215 585.34669495 C-107.52974143 576.36255263 -115.05867244 564.91301648 -119.49938965 552.5146637 C-119.74649343 551.8677592 -119.9935972 551.2208547 -120.24818897 550.55434704 C-123.48075215 540.75744997 -122.89710848 530.71761161 -122.83996582 520.52955627 C-122.83911859 518.40973421 -122.83959657 516.28991127 -122.84129333 514.17008972 C-122.84215095 508.44150698 -122.82456308 502.71311426 -122.80357146 496.98457551 C-122.78476558 490.98816034 -122.78305114 484.9917404 -122.77949524 478.99530029 C-122.77018626 467.65189047 -122.74558799 456.30856782 -122.71544677 444.96519631 C-122.68186705 432.04621501 -122.66540777 419.12722946 -122.65036047 406.20821536 C-122.61903743 379.64364989 -122.56629925 353.07916169 -122.49938965 326.5146637 C-123.27266602 326.37222229 -124.04594238 326.22978088 -124.84265137 326.08302307 C-140.30781855 322.77454033 -153.82541718 307.49621706 -162.74938965 295.3271637 C-165.25479718 291.35967699 -167.01040018 287.13298864 -168.68688965 282.7646637 C-168.92504395 282.145672 -169.16319824 281.5266803 -169.40856934 280.88893127 C-170.17260135 278.780878 -170.83963833 276.6578138 -171.49938965 274.5146637 C-171.7562706 273.69796707 -172.01315155 272.88127045 -172.27781677 272.03982544 C-175.28334264 261.01769165 -174.93470332 249.99369831 -174.89782715 238.65138245 C-174.89985181 236.44710189 -174.9027665 234.24282199 -174.90652466 232.0385437 C-174.9109249 227.44189512 -174.90458832 222.84542254 -174.89050293 218.24879456 C-174.87336196 212.37015473 -174.88329806 206.49192441 -174.90122032 200.61329937 C-174.91207739 196.07072886 -174.90860382 191.528255 -174.90083694 186.98568153 C-174.89884288 184.81803653 -174.90126617 182.65038262 -174.9082756 180.48274803 C-174.91592734 177.45368137 -174.90423575 174.42527331 -174.88757324 171.39625549 C-174.89364594 170.51036743 -174.89971863 169.62447937 -174.90597534 168.71174622 C-174.82546115 160.77760007 -173.15679834 154.64001428 -167.58044434 148.7893219 C-166.78102417 147.94366669 -165.981604 147.09801147 -165.15795898 146.22673035 C-164.2806311 145.33174835 -163.40330322 144.43676636 -162.49938965 143.5146637 C-162.04165665 143.04520199 -161.58392365 142.57574028 -161.11231995 142.09205246 C-157.50849555 138.40167631 -153.85857069 134.75864676 -150.20251465 131.12013245 C-149.0388619 129.95835114 -147.87543445 128.79634414 -146.71221924 127.63412476 C-143.6783897 124.60407462 -140.64157087 121.57703853 -137.60406494 118.55067444 C-134.51396008 115.47084044 -131.42671557 112.38814213 -128.3392334 109.30567932 C-122.91247189 103.88843238 -117.48325125 98.47366113 -112.05218506 93.06072998 C-110.34853596 91.36157167 -108.651007 89.65625516 -106.95962524 87.94488525 C-104.6504975 85.66392809 -102.28053939 83.50208016 -99.84558105 81.35694885 C-94.35322061 76.43996767 -89.1479656 71.27317054 -83.96032715 66.0381012 C-82.98517345 65.0585239 -82.00971304 64.07925185 -81.03396606 63.1002655 C-77.97789632 60.03292085 -74.92583375 56.96160914 -71.87438965 53.8896637 C-68.32457028 50.31605479 -64.77302457 46.74419511 -61.21721268 43.176548 C-59.81278187 41.76573742 -58.41145592 40.35183815 -57.01022339 38.93785095 C-52.54521723 34.455854 -48.01994854 30.1397853 -43.21871948 26.02027893 C-40.91097022 23.99938546 -38.79962846 21.82643482 -36.69470215 19.59669495 C-35.44753418 18.30408752 -35.44753418 18.30408752 -34.1751709 16.98536682 C-32.47251426 15.21100565 -30.77977844 13.42707184 -29.0970459 11.63380432 C-28.26302246 10.77593323 -27.42899902 9.91806213 -26.56970215 9.03419495 C-25.83509766 8.26180481 -25.10049316 7.48941467 -24.34362793 6.69361877 C-16.90657272 0.99613227 -9.13636665 -0.07336275 0 0 Z " fill="#E1EEEA" transform="translate(751.4993896484375,586.4853363037109)"/>
<path d="M0 0 C2.53466143 1.17945012 4.43793619 2.83478248 6.53417969 4.66357422 C21.31653807 16.92529338 41.378554 21.26139675 60.140625 19.99609375 C75.71162863 18.23726847 92.25608995 13.18788746 104.140625 2.62109375 C107.140625 -0.00390625 107.140625 -0.00390625 110.140625 -0.00390625 C111.8102182 1.65982873 113.4763041 3.32708462 115.140625 4.99609375 C117.50449699 6.67125672 119.98336602 8.09167865 122.515625 9.49609375 C123.21026855 9.88410156 123.90491211 10.27210938 124.62060547 10.671875 C142.74360199 20.4685321 164.0877311 23.15206008 184.02636719 17.45751953 C194.34611965 14.26088847 206.42277202 9.39626809 213.77734375 1.1640625 C215.140625 -0.00390625 215.140625 -0.00390625 217.09375 0.1171875 C219.44919493 1.12859038 220.9641008 2.3671055 222.890625 4.05859375 C226.99682089 7.33409541 231.23456299 9.85838394 235.890625 12.24609375 C236.50905273 12.57488525 237.12748047 12.90367676 237.76464844 13.24243164 C248.18466548 18.427303 259.22068652 19.48953724 270.703125 19.37109375 C272.39598633 19.38849609 272.39598633 19.38849609 274.12304688 19.40625 C292.80777291 19.34178286 310.80162207 11.88887839 325.140625 -0.00390625 C328.38071377 1.50015343 331.17694277 3.35493468 334.078125 5.43359375 C340.00295846 9.67346685 345.62313414 12.71161314 352.453125 15.18359375 C353.19369141 15.45623047 353.93425781 15.72886719 354.69726562 16.00976562 C356.51005902 16.67640578 358.32511816 17.33687916 360.140625 17.99609375 C360.21069809 44.47347575 360.26360489 70.95084386 360.29606152 97.4282999 C360.31153207 109.72216961 360.33262528 122.01598172 360.36694336 134.30981445 C360.39683984 145.02479384 360.41619863 155.7397315 360.42289048 166.45475143 C360.42680229 172.12855852 360.4359997 177.80224625 360.45781517 183.47601509 C360.47818413 188.81686967 360.48445791 194.15755577 360.47994804 199.49844551 C360.48077305 201.45799678 360.4867362 203.41755371 360.49824142 205.37707138 C360.51319188 208.05481503 360.50956927 210.73192456 360.50138855 213.40968323 C360.51012707 214.18304679 360.5188656 214.95641035 360.52786893 215.75320917 C360.45680103 224.37383462 356.66935778 230.55293952 351.140625 236.99609375 C345.43644226 242.4077543 339.66439715 244.37868203 331.92016602 244.33666992 C331.23639389 244.337108 330.55262177 244.33754608 329.84812927 244.33799744 C327.61329458 244.33592614 325.37923304 244.31267563 323.14453125 244.2890625 C321.58512278 244.2834606 320.02570899 244.27919331 318.46629333 244.27619934 C314.38092223 244.26479724 310.29587594 244.23537065 306.21063232 244.2020874 C302.03434644 244.17128599 297.85800759 244.15767257 293.68164062 244.14257812 C285.50115376 244.11049592 277.3209299 244.05935647 269.140625 243.99609375 C269.13253815 242.76993347 269.12445129 241.54377319 269.11611938 240.28045654 C269.03841271 228.68778234 268.95061272 217.09522197 268.85309792 205.50269699 C268.80329244 199.54381356 268.75696166 193.58494651 268.71875 187.62597656 C268.68169748 181.86816965 268.63528481 176.11050533 268.58256149 170.35282135 C268.56412314 168.16338875 268.54897686 165.97392571 268.53728104 163.78444672 C268.45597607 147.79158776 268.45597607 147.79158776 266.140625 131.99609375 C265.79942546 129.99742069 265.46426826 127.99768466 265.140625 125.99609375 C264.480625 125.99609375 263.820625 125.99609375 263.140625 125.99609375 C262.93308594 125.31804687 262.72554687 124.64 262.51171875 123.94140625 C260.10224092 116.66256528 256.90542894 110.98288518 252.140625 104.99609375 C251.48191406 104.16078125 250.82320312 103.32546875 250.14453125 102.46484375 C238.46371798 88.57646393 220.36445398 78.42515486 202.10941887 76.81717682 C196.53477441 76.52610299 190.95564151 76.54999796 185.375 76.5625 C183.56959845 76.55792617 181.76419864 76.55261707 179.95880127 76.5466156 C176.19007255 76.53772778 172.42155621 76.54005649 168.65283203 76.55004883 C163.86779182 76.5615111 159.08349266 76.54134682 154.29854965 76.51213169 C150.57315557 76.49361478 146.84793384 76.49409303 143.12250519 76.49976921 C141.3605877 76.49992066 139.59865717 76.49402577 137.83678436 76.48147774 C116.30541464 76.34973636 97.51976422 81.17422414 81.140625 95.99609375 C80.37105469 96.67285156 79.60148438 97.34960938 78.80859375 98.046875 C65.5543339 110.39794849 57.30348412 128.56188386 55.94495773 146.59311485 C55.8592031 149.20510346 55.82808133 151.81118528 55.82177734 154.42456055 C55.81173172 155.4015239 55.8016861 156.37848724 55.79133606 157.38505554 C55.76077139 160.57180259 55.74354401 163.7584667 55.7265625 166.9453125 C55.70782931 169.17162273 55.68825433 171.39792601 55.6678772 173.6242218 C55.61677722 179.45197438 55.5770336 185.27974992 55.53973389 191.10760498 C55.49955477 197.0672361 55.44852618 203.02677352 55.3984375 208.98632812 C55.30194059 220.65618397 55.21745262 232.32609299 55.140625 243.99609375 C46.28234784 244.06579294 37.42416599 244.11900569 28.56567383 244.15153027 C24.45172395 244.16714528 20.33796253 244.18830677 16.22412109 244.22241211 C12.24946251 244.25515506 8.27498452 244.27297804 4.30020142 244.28072548 C2.78843343 244.28624232 1.27667464 244.29701509 -0.23501587 244.31328392 C-9.30351069 244.40694337 -16.57649805 244.26644615 -24.484375 239.37109375 C-27.88278913 235.97267962 -30.3914617 232.10687016 -32.859375 227.99609375 C-33.21188765 227.46155201 -33.56440029 226.92701027 -33.92759514 226.37627029 C-35.30153425 222.8666241 -35.12727392 219.40821755 -35.09988403 215.69451904 C-35.10159288 214.84988956 -35.10330173 214.00526007 -35.10506237 213.13503575 C-35.10836059 210.30054992 -35.09734806 207.46630002 -35.08642578 204.63183594 C-35.08586174 202.60171514 -35.08617809 200.57159394 -35.08731079 198.54147339 C-35.08788558 193.02532164 -35.07611085 187.50925654 -35.06216288 181.99312496 C-35.04967653 176.23022333 -35.04848667 170.46731981 -35.04611206 164.70440674 C-35.03989113 153.78931963 -35.023472 142.8742725 -35.00341308 131.959203 C-34.98107317 119.53371741 -34.97006545 107.10822992 -34.96002221 94.68272924 C-34.93910632 69.12049524 -34.90391842 43.55829673 -34.859375 17.99609375 C-34.03200411 17.68802355 -34.03200411 17.68802355 -33.18791866 17.37372971 C-32.4655782 17.1039896 -31.74323774 16.8342495 -30.99900818 16.55633545 C-30.28242759 16.28908031 -29.565847 16.02182518 -28.82755184 15.74647141 C-25.42289364 14.44842776 -22.18139303 12.86829654 -18.921875 11.24609375 C-17.87918457 10.73091187 -17.87918457 10.73091187 -16.81542969 10.20532227 C-11.91995601 7.71475289 -7.72706806 4.8691652 -3.65625 1.1484375 C-1.859375 -0.00390625 -1.859375 -0.00390625 0 0 Z " fill="#305B4E" transform="translate(713.859375,898.00390625)"/>
<path d="M0 0 C164.67 0 329.34 0 499 0 C499 66.47058824 499 66.47058824 490.875 79.375 C483.62048038 85.99869183 476.37509441 88.53273171 466.6875 88.5625 C465.93509033 88.56491699 465.18268066 88.56733398 464.4074707 88.56982422 C456.1897777 88.32451995 448.99160313 85.0685291 443.17578125 79.140625 C435 70.02214361 435 70.02214361 435 64 C420.15 64.33 405.3 64.66 390 65 C388.02 68.96 386.04 72.92 384 77 C381.24224815 79.89337899 379.21330884 81.85580321 376 84 C375.36835937 84.43183594 374.73671875 84.86367188 374.0859375 85.30859375 C365.99932162 89.82023851 355.3074379 89.23760884 346.515625 87.1875 C339.29903137 84.54996324 334.16158375 80.4693711 330 74 C328.02 69.545 328.02 69.545 326 65 C311.15 64.67 296.3 64.34 281 64 C280.34 66.97 279.68 69.94 279 73 C278.34 73 277.68 73 277 73 C276.690625 74.0828125 276.690625 74.0828125 276.375 75.1875 C273.0445976 81.99968673 265.69974568 85.17268532 259 88 C255.9375 88.8125 255.9375 88.8125 253 89 C252.33613281 89.05027344 251.67226563 89.10054687 250.98828125 89.15234375 C242.57597976 89.51937261 234.56434998 87.39735442 228 82 C221 74.82892057 221 74.82892057 221 72 C220.34 72 219.68 72 219 72 C218.01 68.535 218.01 68.535 217 65 C202.15 64.67 187.3 64.34 172 64 C171.67 65.98 171.34 67.96 171 70 C166.81580884 78.68690206 160.13867947 84.17275451 151.18115234 87.38476562 C142.58559418 89.80930184 132.2892757 89.19586139 124.25 85.4375 C116.26416747 80.71659348 112.01815847 74.71715182 109 66 C109 65.34 109 64.68 109 64 C94.15 64.33 79.3 64.66 64 65 C63.01 67.64 62.02 70.28 61 73 C55.79615994 80.89967228 49.26015289 85.92823698 40 88 C28.45121789 89.33640158 19.48411246 88.26442656 10 81 C5.23090158 76.3379387 3.11202447 72.22404894 0 66 C0 44.22 0 22.44 0 0 Z " fill="#265046" transform="translate(627,780)"/>
<path d="M0 0 C2.37668586 -0.02583731 4.75331787 -0.05710821 7.12986755 -0.09336853 C13.55644663 -0.17368874 19.98047923 -0.17163858 26.4074285 -0.14941478 C30.430524 -0.13761651 34.45325414 -0.15183958 38.47629738 -0.17282295 C39.14652714 -0.1762586 39.8167569 -0.17969424 40.50729666 -0.18323399 C41.86940168 -0.19025281 43.23150657 -0.19729613 44.59361134 -0.20436365 C57.3381307 -0.26715112 70.08150482 -0.24674331 82.82602445 -0.20003832 C94.44754936 -0.15994095 106.06591542 -0.22117203 117.68690779 -0.33103734 C129.65907519 -0.443352 141.6297689 -0.48821867 153.60245734 -0.46083266 C160.30864716 -0.4466013 167.01196067 -0.45922129 173.71777916 -0.53901482 C180.03103949 -0.61102731 186.33822354 -0.59440279 192.65130043 -0.5122776 C194.95454502 -0.49659601 197.25824218 -0.51095206 199.56103516 -0.55918121 C211.14786926 -0.78349152 219.41004336 -0.23242606 228.09592038 8.01592869 C231.02011041 11.08879451 233.76556076 14.27703896 236.4676863 17.54565799 C238.96296788 20.3902909 241.70675761 22.80722456 244.60584372 25.23033959 C247.66322443 27.82307097 250.44308328 30.68959426 253.25512695 33.54272461 C253.86851929 34.15990356 254.48191162 34.77708252 255.1138916 35.41296387 C257.69887214 38.0140625 260.27775517 40.62117475 262.85717773 43.2277832 C271.77574054 52.27256588 271.77574054 52.27256588 281.19848633 60.7800293 C286.47456898 65.50428865 291.40671253 70.61043068 296.4050293 75.62475586 C298.43073797 77.65588746 300.46181754 79.68154059 302.4934082 81.70678711 C303.77888577 82.99292437 305.06405371 84.2793712 306.34887695 85.56616211 C307.2627417 86.47699051 307.2627417 86.47699051 308.19506836 87.40621948 C312.41137695 91.64648438 312.41137695 91.64648438 312.41137695 92.76147461 C171.17137695 92.76147461 29.93137695 92.76147461 -115.58862305 92.76147461 C-114.92862305 91.77147461 -114.26862305 90.78147461 -113.58862305 89.76147461 C-112.92862305 89.76147461 -112.26862305 89.76147461 -111.58862305 89.76147461 C-111.19223633 88.87830566 -111.19223633 88.87830566 -110.7878418 87.97729492 C-109.54493361 85.68074877 -108.23855824 84.15314295 -106.40112305 82.30834961 C-105.78495117 81.68959961 -105.1687793 81.07084961 -104.53393555 80.43334961 C-103.57100586 79.48202148 -103.57100586 79.48202148 -102.58862305 78.51147461 C-101.94666992 77.86178711 -101.3047168 77.21209961 -100.64331055 76.54272461 C-100.02713867 75.92913086 -99.4109668 75.31553711 -98.77612305 74.68334961 C-97.93114258 73.84175293 -97.93114258 73.84175293 -97.0690918 72.9831543 C-95.58862305 71.76147461 -95.58862305 71.76147461 -93.58862305 71.76147461 C-93.58862305 71.10147461 -93.58862305 70.44147461 -93.58862305 69.76147461 C-92.17150879 68.36560059 -92.17150879 68.36560059 -90.18041992 66.72436523 C-85.23349854 62.51462362 -80.68795472 57.96895386 -76.11987305 53.35522461 C-75.24012817 52.47169312 -74.3603833 51.58816162 -73.45397949 50.67785645 C-70.66307798 47.87482327 -67.87533073 45.06867545 -65.08862305 42.26147461 C-61.41463566 38.56046911 -57.73696702 34.86315639 -54.05737305 31.16772461 C-52.8117157 29.90961975 -52.8117157 29.90961975 -51.54089355 28.62609863 C-47.47035699 24.53863676 -43.38339697 20.58693093 -38.91273212 16.93816471 C-36.42951309 14.72905557 -36.42951309 14.72905557 -34.16198254 11.61592007 C-24.60590566 -0.41652847 -14.56227914 -0.13033574 0 0 Z " fill="#204940" transform="translate(777.588623046875,636.238525390625)"/>
<path d="M0 0 C0.67687866 -0.0065712 1.35375732 -0.0131424 2.05114746 -0.01991272 C4.29183065 -0.03962329 6.53244666 -0.05130718 8.77319336 -0.0612793 C9.92531217 -0.06739259 9.92531217 -0.06739259 11.1007061 -0.07362938 C15.17113856 -0.09448692 19.2415374 -0.1087864 23.31201172 -0.11816406 C27.49588615 -0.1291897 31.67922302 -0.16354524 35.86290836 -0.20333576 C39.09650081 -0.22962068 42.32996791 -0.23786666 45.56365776 -0.24144554 C47.10448244 -0.24628592 48.64530249 -0.25782634 50.1860218 -0.27648354 C61.84508178 -0.40881999 71.76697229 0.60586932 80.48493481 9.05576229 C85.94372139 15.4334776 86.88669291 23.21468841 86.75463867 31.30834961 C86.75512081 32.28094915 86.75560295 33.2535487 86.7560997 34.25562096 C86.75314167 37.36782301 86.72281016 40.47903647 86.69116211 43.59106445 C86.6852724 45.52685079 86.68119697 47.46264351 86.67895508 49.3984375 C86.6580829 56.53305687 86.60223777 63.66753938 86.55053711 70.80200195 C86.46803711 86.76575195 86.38553711 102.72950195 86.30053711 119.17700195 C49.01053711 119.17700195 11.72053711 119.17700195 -26.69946289 119.17700195 C-26.76133789 102.82137695 -26.82321289 86.46575195 -26.88696289 69.61450195 C-26.9142749 64.45752686 -26.94158691 59.30055176 -26.96972656 53.98730469 C-26.98327637 47.67126465 -26.98327637 47.67126465 -26.98579407 44.71083069 C-26.99038916 42.65111851 -27.00091626 40.59141421 -27.01618958 38.53175354 C-27.03821036 35.4048163 -27.04117885 32.27837057 -27.04003906 29.15136719 C-27.05083339 28.2397177 -27.06162771 27.32806822 -27.07274914 26.38879299 C-27.03564676 18.76363793 -25.24834591 12.72588498 -19.69946289 7.17700195 C-13.06550459 2.69253343 -8.09631397 0.06509014 0 0 Z " fill="#396254" transform="translate(846.699462890625,1023.822998046875)"/>
<path d="M0 0 C2.84330082 2.84330082 2.25065114 4.71710512 2.25168228 8.70330715 C2.25458916 9.40370276 2.25749604 10.10409836 2.26049101 10.82571808 C2.26784839 13.19635149 2.26082121 15.56673071 2.25396729 17.93736267 C2.25626946 19.64461941 2.25944434 21.35187516 2.26342177 23.05912882 C2.27181196 27.76909653 2.26762544 32.47898375 2.26144934 37.18895185 C2.25694299 42.26128345 2.26389956 47.33360076 2.26940918 52.40592957 C2.27832453 62.35023149 2.27637161 72.2945033 2.2705839 82.23880642 C2.26607556 90.31797005 2.26545091 98.39712522 2.26763153 106.47628975 C2.267938 107.62415215 2.26824446 108.77201456 2.26856022 109.95466067 C2.26919964 112.28619841 2.26984806 114.61773615 2.2705054 116.94927389 C2.27621503 138.83686143 2.26964102 160.72443225 2.25890467 182.61201704 C2.24996977 201.40924045 2.25151947 220.20643915 2.26074219 239.00366211 C2.2714357 260.8089228 2.27566439 282.6141688 2.26951766 304.41943175 C2.26888053 306.74291932 2.26825179 309.0664069 2.26763153 311.38989449 C2.26732298 312.53322402 2.26701443 313.67655356 2.26669653 314.85452945 C2.26496674 322.9272993 2.26789082 331.00005988 2.27259064 339.07282829 C2.27818934 348.90616935 2.27670444 358.73947845 2.26602915 368.57281583 C2.26075859 373.59385495 2.25873913 378.61484074 2.26532745 383.63587952 C2.27126058 388.2268934 2.26805569 392.8178042 2.25737235 397.40880866 C2.25512705 399.07500823 2.25629968 400.7412164 2.26112393 402.40741049 C2.26715411 404.66201694 2.26102021 406.91626441 2.25168228 409.17085171 C2.25135758 410.42626213 2.25103287 411.68167256 2.25069833 412.97512573 C2 416 2 416 0 419 C-1.16259199 415.51222402 -1.11739639 412.81588987 -1.10743046 409.13403034 C-1.10689593 408.42820536 -1.1063614 407.72238037 -1.10581067 406.99516675 C-1.10276428 404.61216523 -1.09248804 402.22924859 -1.08229065 399.8462677 C-1.07859854 398.12776245 -1.07534884 396.40925621 -1.07250541 394.69074935 C-1.06338007 389.95445323 -1.04794727 385.21819507 -1.03152263 380.48191941 C-1.01492065 375.37968371 -1.00411404 370.27743544 -0.99261475 365.17518616 C-0.97188253 356.33054838 -0.94745293 347.48592695 -0.92053413 338.64130592 C-0.88161906 325.85336208 -0.84824588 313.06540854 -0.81623887 300.27744576 C-0.76416243 279.53138787 -0.70758457 258.78534478 -0.64819336 238.03930664 C-0.59049926 217.88273699 -0.53491432 197.72616334 -0.48217773 177.56958008 C-0.47730316 175.70687709 -0.47730316 175.70687709 -0.4723301 173.80654375 C-0.45604077 167.5769821 -0.43979304 161.34742034 -0.42356598 155.11785853 C-0.28882601 103.41188743 -0.14678805 51.7059382 0 0 Z " fill="#4A7465" transform="translate(1511,819)"/>
<path d="M0 0 C0.99 0.495 0.99 0.495 2 1 C4.18685567 1.09376523 6.37668076 1.12006953 8.56554413 1.1174612 C9.25104397 1.11801586 9.9365438 1.11857051 10.64281636 1.11914197 C12.96271117 1.11978884 15.28253181 1.11324109 17.60241699 1.10679626 C19.27326166 1.10580108 20.94410665 1.10525067 22.61495161 1.10510927 C27.22422137 1.10345701 31.83346315 1.09557279 36.44272399 1.08674753 C41.40664238 1.07834466 46.37056394 1.07572276 51.33448792 1.07249451 C59.94122317 1.06618583 68.54794901 1.05643903 77.15467834 1.04459953 C89.60086863 1.02765764 102.04705654 1.01808026 114.49325579 1.0107208 C134.68740119 0.99876467 154.88154289 0.98381076 175.07568359 0.96557617 C176.88999863 0.96394099 176.88999863 0.96394099 178.7409665 0.96227277 C195.91365845 0.94665589 213.08634591 0.92806304 230.2590335 0.9082749 C231.46857686 0.90688158 232.67812022 0.90548827 233.92431641 0.90405273 C235.13239336 0.9026592 236.34047032 0.90126567 237.58515567 0.89982992 C257.70170666 0.87682479 277.81825473 0.8614902 297.93481684 0.85249335 C310.3554056 0.84662766 322.77595454 0.83421872 335.1965276 0.81352056 C343.70128246 0.79985023 352.20602333 0.79332163 360.71078908 0.79251044 C365.62437217 0.79180384 370.53789575 0.78774722 375.4514637 0.7750473 C379.94310897 0.76349839 384.43466123 0.76102347 388.92631775 0.76598949 C390.55751099 0.7661417 392.18870863 0.7628536 393.8198871 0.75591242 C396.02486078 0.74700902 398.22948185 0.75023844 400.43445587 0.75669765 C401.66290616 0.75539614 402.89135644 0.75409463 404.15703249 0.75275367 C407 1 407 1 409 3 C228.49 3 47.98 3 -138 3 C-138.33 2.34 -138.66 1.68 -139 1 C-138.29578226 1.00092179 -137.59156452 1.00184359 -136.86600685 1.00279331 C-119.74929995 1.02485521 -102.63259665 1.04141482 -85.51587868 1.05181217 C-77.23844518 1.05697359 -68.96102116 1.06401338 -60.68359375 1.07543945 C-53.47095972 1.08539097 -46.25833255 1.09185455 -39.04569185 1.09408849 C-35.22488644 1.0953948 -31.40410067 1.09847564 -27.58330154 1.10573006 C-23.98993139 1.11249764 -20.39658904 1.11461545 -16.80321312 1.11310768 C-14.84981813 1.11351566 -12.89642619 1.11890703 -10.94303894 1.12442017 C-9.78755051 1.1230455 -8.63206207 1.12167084 -7.44155884 1.12025452 C-5.92889655 1.12163721 -5.92889655 1.12163721 -4.38567543 1.12304783 C-1.98392495 1.15885773 -1.98392495 1.15885773 0 0 Z " fill="#4E786B" transform="translate(820,251)"/>
<path d="M0 0 C95.37 0 190.74 0 289 0 C286.54970795 2.45029205 285.90937092 2.25290548 282.54508591 2.26450634 C281.13083804 2.27662963 281.13083804 2.27662963 279.68801951 2.28899783 C278.12357565 2.28711891 278.12357565 2.28711891 276.52752686 2.28520203 C275.42496969 2.29169999 274.32241251 2.29819796 273.18644452 2.30489284 C269.46639545 2.32434502 265.74646149 2.32946679 262.02636719 2.3347168 C259.36901093 2.34564499 256.71166871 2.35735511 254.05432129 2.37002563 C247.56747841 2.39912007 241.08064647 2.41753008 234.593757 2.43236574 C227.03340905 2.45003652 219.47311025 2.47806512 211.91279641 2.50649796 C198.41095947 2.55690572 184.90911038 2.5976339 171.40722656 2.63305664 C158.32386147 2.66738805 145.24054405 2.7087874 132.15722656 2.75805664 C130.951194 2.76259707 130.951194 2.76259707 129.72079715 2.76722922 C128.51680278 2.77176228 128.51680278 2.77176228 127.28848529 2.77638692 C112.38346382 2.83243657 97.47842616 2.88153874 82.57337068 2.92758697 C77.31303454 2.94400258 72.05270802 2.96249229 66.79238129 2.98166466 C60.36553235 3.00495821 53.93868478 3.02424901 47.51180968 3.03869756 C44.23721397 3.04613356 40.96265107 3.05571088 37.6880722 3.06874657 C34.12413359 3.08261906 30.56023654 3.08997043 26.99627686 3.0957489 C25.98008294 3.10118845 24.96388902 3.106628 23.91690135 3.11223239 C16.19056656 3.11428626 8.76600149 2.55471439 1 2 C1 22.13 1 42.26 1 63 C0.67 63 0.34 63 0 63 C0 42.21 0 21.42 0 0 Z " fill="#23423B" transform="translate(628,780)"/>
<path d="M0 0 C0.33 0 0.66 0 1 0 C1.07007309 26.477382 1.12297989 52.95475011 1.15543652 79.43220615 C1.17090707 91.72607586 1.19200028 104.01988797 1.22631836 116.3137207 C1.25621484 127.02870009 1.27557363 137.74363775 1.28226548 148.45865768 C1.28617729 154.13246477 1.2953747 159.8061525 1.31719017 165.47992134 C1.33755913 170.82077592 1.34383291 176.16146202 1.33932304 181.50235176 C1.34014805 183.46190303 1.3461112 185.42145996 1.35761642 187.38097763 C1.37256688 190.05872128 1.36894427 192.73583081 1.36076355 195.41358948 C1.36950207 196.18695304 1.3782406 196.9603166 1.38724393 197.75711542 C1.34505076 202.87519968 0.28692835 206.41307173 -2 211 C-4.52433406 207.21349891 -3.83280218 206.34367905 -3 202 C-2.91444576 199.40697168 -2.87313215 196.84245757 -2.88647461 194.25048828 C-2.88632858 193.49858719 -2.88618256 192.7466861 -2.8860321 191.97200012 C-2.88672472 189.50474082 -2.89448642 187.0375585 -2.90234375 184.5703125 C-2.90421025 182.85252931 -2.90563306 181.13474558 -2.90663147 179.41696167 C-2.91043841 174.90920527 -2.92025304 170.4014814 -2.93133545 165.89373779 C-2.94158885 161.288538 -2.94613749 156.68333293 -2.95117188 152.078125 C-2.96187702 143.05206909 -2.97893144 134.02603726 -3 125 C-2.34 125.66 -1.68 126.32 -1 127 C-0.67 85.09 -0.34 43.18 0 0 Z " fill="#708E81" transform="translate(1073,916)"/>
<path d="M0 0 C0.99 0.495 0.99 0.495 2 1 C4.84429357 1.08691001 7.66379176 1.11553802 10.5078125 1.09765625 C11.76874222 1.09553383 11.76874222 1.09553383 13.05514526 1.09336853 C15.74513275 1.08776237 18.43503759 1.07520886 21.125 1.0625 C22.94661338 1.05748579 24.76822807 1.05292275 26.58984375 1.04882812 C31.05992777 1.03779094 35.52994986 1.0205222 40 1 C39.67 1.66 39.34 2.32 39 3 C-19.41 3 -77.82 3 -138 3 C-138.33 2.34 -138.66 1.68 -139 1 C-138.29578226 1.00092179 -137.59156452 1.00184359 -136.86600685 1.00279331 C-119.74929995 1.02485521 -102.63259665 1.04141482 -85.51587868 1.05181217 C-77.23844518 1.05697359 -68.96102116 1.06401338 -60.68359375 1.07543945 C-53.47095972 1.08539097 -46.25833255 1.09185455 -39.04569185 1.09408849 C-35.22488644 1.0953948 -31.40410067 1.09847564 -27.58330154 1.10573006 C-23.98993139 1.11249764 -20.39658904 1.11461545 -16.80321312 1.11310768 C-14.84981813 1.11351566 -12.89642619 1.11890703 -10.94303894 1.12442017 C-9.78755051 1.1230455 -8.63206207 1.12167084 -7.44155884 1.12025452 C-5.92889655 1.12163721 -5.92889655 1.12163721 -4.38567543 1.12304783 C-1.98392495 1.15885773 -1.98392495 1.15885773 0 0 Z " fill="#577F71" transform="translate(820,251)"/>
<path d="M0 0 C0.33 0 0.66 0 1 0 C0.98839844 0.68707031 0.97679687 1.37414062 0.96484375 2.08203125 C0.95582031 2.98308594 0.94679688 3.88414062 0.9375 4.8125 C0.92589844 5.70582031 0.91429687 6.59914063 0.90234375 7.51953125 C0.88990033 10.13413791 0.88990033 10.13413791 2 13 C2.08844068 14.42149624 2.12198928 15.84679811 2.12025452 17.27104187 C2.12162918 18.14182373 2.12300385 19.01260559 2.12442017 19.90977478 C2.12082489 20.86211502 2.11722961 21.81445526 2.11352539 22.7956543 C2.11367142 23.80071014 2.11381744 24.80576599 2.1139679 25.84127808 C2.11327029 29.16894679 2.10548494 32.49655979 2.09765625 35.82421875 C2.09579153 38.1292162 2.09436788 40.43421405 2.09336853 42.73921204 C2.08954759 48.81044608 2.07972089 54.88165626 2.06866455 60.95288086 C2.05844135 67.14631833 2.05386896 73.33975965 2.04882812 79.53320312 C2.03809827 91.68881258 2.0210269 103.84440431 2 116 C1.67 116 1.34 116 1 116 C-1.36630533 103.61257111 -1.27536936 91.38995179 -1.23046875 78.828125 C-1.22927447 76.61090115 -1.22882431 74.39367679 -1.2290802 72.17645264 C-1.22752581 67.56063612 -1.21931042 62.94489831 -1.20581055 58.32910156 C-1.18870213 52.40405831 -1.18500018 46.47910026 -1.18575573 40.55403519 C-1.18548456 35.9902871 -1.18001384 31.42655774 -1.17275429 26.86281586 C-1.16956864 24.67625825 -1.16760045 22.48969853 -1.16686058 20.30313873 C-1.1647027 17.2635786 -1.15597397 14.22411075 -1.14526367 11.18457031 C-1.14571686 10.27868164 -1.14617004 9.37279297 -1.14663696 8.43945312 C-1.11448921 2.22897843 -1.11448921 2.22897843 0 0 Z " fill="#3E6454" transform="translate(1071,936)"/>
<path d="M0 0 C1.27166854 2.54333709 0.7204664 3.31538268 0 6 C-0.09559288 7.37287 -0.14560981 8.74941304 -0.15821838 10.12554932 C-0.1680072 10.93880676 -0.17779602 11.75206421 -0.18788147 12.58996582 C-0.19363693 13.47325562 -0.1993924 14.35654541 -0.20532227 15.26660156 C-0.21522186 16.20352844 -0.22512146 17.14045532 -0.23532104 18.10577393 C-0.26689254 21.20069863 -0.29167635 24.29563869 -0.31640625 27.390625 C-0.33697953 29.53725583 -0.3579761 31.68388265 -0.37937927 33.83050537 C-0.43456131 39.47917425 -0.48398769 45.12787946 -0.53222656 50.77661133 C-0.58246979 56.54121126 -0.63814114 62.30575846 -0.69335938 68.0703125 C-0.80089368 79.38016496 -0.90184757 90.69006223 -1 102 C8.9 102 18.8 102 29 102 C29 102.66 29 103.32 29 104 C18.44 104 7.88 104 -3 104 C-3.06775845 91.17836305 -3.12280625 78.35684489 -3.15543652 65.53506947 C-3.17109685 59.58149886 -3.19234211 53.62805703 -3.22631836 47.67456055 C-3.25889828 41.92982911 -3.27685025 36.18522159 -3.28463173 30.44040489 C-3.29017766 28.2479323 -3.3010074 26.05546653 -3.31719017 23.86304665 C-3.33894594 20.79372082 -3.34196766 17.72490802 -3.34057617 14.65551758 C-3.351362 13.74777084 -3.36214783 12.84002411 -3.3732605 11.9047699 C-3.34959759 7.08568519 -3.08357765 3.95485403 0 0 Z " fill="#34574B" transform="translate(823,1038)"/>
<path d="M0 0 C1.43666016 0.24363281 1.43666016 0.24363281 2.90234375 0.4921875 C7.45826451 1.14090477 11.96802801 1.14665501 16.5625 1.125 C17.7990332 1.13080078 17.7990332 1.13080078 19.06054688 1.13671875 C22.49113153 1.1312342 25.68411483 1.05546076 29.0703125 0.4609375 C32.87349038 -0.13742915 36.50049455 0.19189223 40.3125 0.5 C47.36787517 0.99577918 54.20791517 0.93786918 61.25317383 0.31835938 C64.34781893 0.06464356 67.11450695 0.01729167 70.19140625 0.48193359 C74.40540637 1.05514566 78.4624639 1.14401564 82.70703125 1.1328125 C83.51363693 1.13376923 84.32024261 1.13472595 85.15129089 1.13571167 C86.84296752 1.13638809 88.53464682 1.1345716 90.22631836 1.13037109 C92.82216131 1.12497993 95.417834 1.1303522 98.01367188 1.13671875 C99.66145872 1.13605856 101.30924545 1.13477862 102.95703125 1.1328125 C103.73407913 1.13483673 104.51112701 1.13686096 105.3117218 1.13894653 C109.28528477 1.20710259 109.28528477 1.20710259 113 0 C113.69375732 0.14236084 114.38751465 0.28472168 115.10229492 0.43139648 C118.86403685 1.16954603 122.54749784 1.12351374 126.36328125 1.09765625 C127.15526413 1.0962413 127.94724701 1.09482635 128.76322937 1.09336853 C131.27969219 1.08779457 133.79606431 1.07524693 136.3125 1.0625 C138.02408725 1.05748163 139.73567591 1.05291931 141.44726562 1.04882812 C145.63154508 1.03783368 149.81575719 1.02058707 154 1 C154 1.66 154 2.32 154 3 C102.19 3 50.38 3 -3 3 C-2.01 2.67 -1.02 2.34 0 2 C0 1.34 0 0.68 0 0 Z " fill="#597F72" transform="translate(526,251)"/>
<path d="M0 0 C0.33 0 0.66 0 1 0 C1.17725341 28.05921278 1.34292589 56.11847319 1.49477577 84.17783546 C1.56555138 97.20599841 1.64013012 110.23411893 1.72363281 123.26220703 C1.79639601 134.61621994 1.8620533 145.97024778 1.91914403 157.32435071 C1.94962783 163.33738072 1.98369261 169.35034274 2.02626419 175.36330032 C2.06621349 181.02172617 2.09666842 186.68012335 2.11981392 192.33864212 C2.12999121 194.41634131 2.14364962 196.49402679 2.16103554 198.57167816 C2.18424475 201.40725735 2.19495495 204.2426198 2.20254517 207.07827759 C2.2122618 207.90124537 2.22197843 208.72421315 2.2319895 209.57211936 C2.22904954 214.07820835 1.91091585 217.82405532 0 222 C-1.485 222.99 -1.485 222.99 -3 224 C-2.125 216.375 -2.125 216.375 -1 213 C-0.89405669 210.17644594 -0.84515 207.37694314 -0.84178162 204.55293274 C-0.83684364 203.68057281 -0.83190566 202.80821288 -0.82681805 201.90941781 C-0.81141344 198.97517698 -0.8030744 196.04095809 -0.79467773 193.10668945 C-0.78510154 191.00774949 -0.77509161 188.90881147 -0.76467896 186.80987549 C-0.7375958 181.10156988 -0.71660471 175.39325597 -0.69667697 169.6849215 C-0.67483844 163.72313432 -0.64743933 157.76137281 -0.62062073 151.79960632 C-0.57066496 140.50556829 -0.52573683 129.21151603 -0.48259836 117.91745013 C-0.43325062 105.06150179 -0.37832337 92.20557919 -0.32291877 79.34965575 C-0.20905445 52.89979452 -0.10222511 26.44990859 0 0 Z " fill="#638173" transform="translate(1124,913)"/>
<path d="M0 0 C55.11 0 110.22 0 167 0 C166 2 166 2 164.34130859 2.61669922 C161.37978639 3.10153653 158.54094893 3.12985996 155.5390625 3.1328125 C154.26160156 3.13410156 152.98414063 3.13539062 151.66796875 3.13671875 C151.00200684 3.13462402 150.33604492 3.1325293 149.64990234 3.13037109 C147.666347 3.12510967 145.68277224 3.13079769 143.69921875 3.13671875 C137.52394181 3.13054964 131.41355064 3.00337297 125.2578125 2.5 C117.11054493 1.85536835 108.98589855 1.84922575 100.81835938 1.86962891 C98.21218279 1.87507909 95.60617198 1.86960219 93 1.86328125 C91.33854129 1.86394061 89.67708268 1.8652188 88.015625 1.8671875 C87.23866272 1.86516327 86.46170044 1.86313904 85.66119385 1.86105347 C81.70141665 1.79466967 81.70141665 1.79466967 78 3 C78 2.34 78 1.68 78 1 C52.26 1 26.52 1 0 1 C0 0.67 0 0.34 0 0 Z " fill="#3F6055" transform="translate(715,1193)"/>
<path d="M0 0 C0.33 0 0.66 0 1 0 C1 2.64 1 5.28 1 8 C-7.94463131 8.06946766 -16.88916996 8.12279465 -25.83401203 8.15543652 C-29.98733857 8.17110189 -34.14048075 8.19235582 -38.29370117 8.22631836 C-42.30075585 8.2588811 -46.30763304 8.27684645 -50.3148098 8.28463173 C-51.84466535 8.29018082 -53.37451103 8.30101676 -54.90429115 8.31719017 C-57.04488855 8.33892415 -59.18474973 8.34196872 -61.32543945 8.34057617 C-62.54455521 8.34723801 -63.76367096 8.35389984 -65.01972961 8.36076355 C-68 8 -68 8 -71 5 C-47.9 5.33 -24.8 5.66 -1 6 C-1 4.35 -1 2.7 -1 1 C-0.67 0.67 -0.34 0.34 0 0 Z " fill="#2A4E45" transform="translate(768,1134)"/>
<path d="M0 0 C38.49658314 -0.14806378 38.49658314 -0.14806378 55 1 C55 1.33 55 1.66 55 2 C49.5599655 2.16978452 44.11975676 2.330071 38.67919922 2.48217773 C36.83472469 2.53501006 34.99031808 2.59027987 33.14599609 2.64819336 C30.46987581 2.73177669 27.79362046 2.80610571 25.1171875 2.87890625 C23.91314774 2.91945885 23.91314774 2.91945885 22.68478394 2.96083069 C15.32684404 3.14571729 8.45997211 2.53285515 1 2 C1 22.13 1 42.26 1 63 C0.67 63 0.34 63 0 63 C0 42.21 0 21.42 0 0 Z " fill="#1B3833" transform="translate(628,780)"/>
<path d="M0 0 C0.33 0.99 0.66 1.98 1 3 C1.54884857 2.98525131 2.09769714 2.97050262 2.66317749 2.95530701 C8.4725168 2.80066258 14.28205406 2.6564599 20.09179688 2.51782227 C22.24843699 2.46506092 24.40501768 2.40980032 26.56152344 2.35180664 C39.77110292 1.99852719 52.81935398 1.9953712 66 3 C66.33 2.34 66.66 1.68 67 1 C67.99 1.99 68.98 2.98 70 4 C67.14429301 5.4278535 64.72285644 5.11941486 61.53076172 5.11352539 C60.53545944 5.11374443 60.53545944 5.11374443 59.52005005 5.1139679 C57.32322947 5.11327031 55.1264933 5.10548514 52.9296875 5.09765625 C51.40796963 5.09579152 49.88625116 5.09436788 48.36453247 5.09336853 C44.35648953 5.08954767 40.34848274 5.07972104 36.3404541 5.06866455 C32.25171396 5.05844118 28.16296799 5.05386892 24.07421875 5.04882812 C16.04946256 5.0380984 8.02473578 5.02102713 0 5 C0 3.35 0 1.7 0 0 Z " fill="#426655" transform="translate(985,1137)"/>
<path d="M0 0 C0.66 0.33 1.32 0.66 2 1 C-0.5522486 4.27006852 -3.06300102 7.13491557 -6.2578125 9.78125 C-10.38329584 13.34644173 -14.21992176 17.15631289 -18.0546875 21.02734375 C-18.6865094 21.66470963 -19.3183313 22.3020755 -19.96929932 22.95875549 C-22.61630847 25.63340775 -25.2594711 28.31179646 -27.8984375 30.99438477 C-29.84205077 32.9680125 -31.7916855 34.93552729 -33.7421875 36.90234375 C-34.34110809 37.51472397 -34.94002869 38.12710419 -35.55709839 38.75804138 C-37.00055908 40.21029552 -38.49577628 41.61078013 -40 43 C-40.66 43 -41.32 43 -42 43 C-40.3407049 39.40486061 -38.42322378 36.13593666 -36 33 C-34.68 33 -33.36 33 -32 33 C-32 32.34 -32 31.68 -32 31 C-31.34 31 -30.68 31 -30 31 C-29.7525 30.38125 -29.505 29.7625 -29.25 29.125 C-27.76259631 26.59641373 -26.56321991 26.28160996 -24 25 C-22.73195434 22.9664052 -22.73195434 22.9664052 -22 21 C-21.34 21 -20.68 21 -20 21 C-19.9071875 19.8553125 -19.9071875 19.8553125 -19.8125 18.6875 C-19 16 -19 16 -16.625 14.25 C-14 13 -14 13 -11 12 C-11 11.34 -11 10.68 -11 10 C-10.34 9.67 -9.68 9.34 -9 9 C-8.67 8.01 -8.34 7.02 -8 6 C-7.01 5.67 -6.02 5.34 -5 5 C-3.29413425 3.37347684 -1.6222454 1.70993434 0 0 Z " fill="#24413C" transform="translate(647,670)"/>
<path d="M0 0 C0.33 0 0.66 0 1 0 C1.28843449 6.04638479 1.57311598 12.09293106 1.85449219 18.13964844 C1.95049452 20.19177893 2.04747858 22.24386377 2.14550781 24.29589844 C3.61925007 55.1843331 3.61925007 55.1843331 1 61 C-1.56485492 57.15271762 -0.79278727 56.47211762 0 52 C0.15236265 48.01350413 0.11626318 44.02798811 0.09765625 40.0390625 C0.0962413 38.89335785 0.09482635 37.7476532 0.09336853 36.56723022 C0.0877858 32.91979322 0.07523641 29.27241835 0.0625 25.625 C0.05748277 23.14713631 0.05292025 20.66927165 0.04882812 18.19140625 C0.03782201 12.12758309 0.02110103 6.06379598 0 0 Z " fill="#4D7160" transform="translate(1070,1066)"/>
<path d="M0 0 C-1.32634942 2.93745916 -2.7693366 5.02143479 -5.04101562 7.29980469 C-5.96207092 8.23031647 -5.96207092 8.23031647 -6.9017334 9.17962646 C-7.56322388 9.83706848 -8.22471436 10.4945105 -8.90625 11.171875 C-9.58675415 11.8542926 -10.2672583 12.53671021 -10.96838379 13.23980713 C-12.40501197 14.67779427 -13.84416085 16.11326692 -15.28564453 17.54638672 C-17.49876429 19.74877028 -19.70098472 21.96164933 -21.90234375 24.17578125 C-23.29883803 25.57095454 -24.69595227 26.96550762 -26.09375 28.359375 C-26.75524048 29.02491394 -27.41673096 29.69045288 -28.0982666 30.37615967 C-28.71230347 30.98389221 -29.32634033 31.59162476 -29.95898438 32.21777344 C-30.49922241 32.75642029 -31.03946045 33.29506714 -31.59606934 33.85003662 C-33 35 -33 35 -35 35 C-34.67 34.01 -34.34 33.02 -34 32 C-33.34 32 -32.68 32 -32 32 C-31.95875 31.443125 -31.9175 30.88625 -31.875 30.3125 C-30.77617242 27.40845568 -28.9716587 26.10739391 -26.55859375 24.23828125 C-24.81032175 22.90327783 -24.81032175 22.90327783 -22.75 20.6875 C-21 19 -21 19 -19 19 C-18.67 18.01 -18.34 17.02 -18 16 C-16.5625 14.3125 -16.5625 14.3125 -15 13 C-14.34 13 -13.68 13 -13 13 C-13 12.34 -13 11.68 -13 11 C-12.34 11 -11.68 11 -11 11 C-10.34 9.68 -9.68 8.36 -9 7 C-8.34 7 -7.68 7 -7 7 C-6.67 6.01 -6.34 5.02 -6 4 C-2.45714286 0 -2.45714286 0 0 0 Z " fill="#203B37" transform="translate(703,616)"/>
<path d="M0 0 C0 4.0333534 -1.60879918 5.83517538 -4 9 C-4.66 9 -5.32 9 -6 9 C-6.0928125 9.86625 -6.0928125 9.86625 -6.1875 10.75 C-7 13 -7 13 -9.375 14.875 C-12.38061904 17.30812018 -13.35131309 19.55274555 -15 23 C-15.99 23.66 -16.98 24.32 -18 25 C-19.01866229 26.65532623 -20.01810813 28.32260138 -21 30 C-22 31 -23 32 -24 33 C-24.515625 33.86625 -25.03125 34.7325 -25.5625 35.625 C-27 38 -27 38 -29 39 C-27.49778119 34.61647626 -25.14546122 31.08703096 -22.4375 27.375 C-21.99422363 26.76180908 -21.55094727 26.14861816 -21.09423828 25.5168457 C-14.57262791 16.57720144 -7.42712002 8.19614062 0 0 Z " fill="#5D8678" transform="translate(303,339)"/>
<path d="M0 0 C14.52 0 29.04 0 44 0 C43.67 0.66 43.34 1.32 43 2 C42.22398437 1.99476318 41.44796875 1.98952637 40.6484375 1.98413086 C37.09896672 1.96321736 33.54950896 1.95029432 30 1.9375 C28.16888672 1.92493164 28.16888672 1.92493164 26.30078125 1.91210938 C20.08520788 1.89531053 14.14934367 2.13068375 8 3 C4.0625 2.6875 4.0625 2.6875 1 2 C0.67 1.34 0.34 0.68 0 0 Z " fill="#47695C" transform="translate(952,1193)"/>
<path d="M0 0 C1.69812971 3.39625942 -0.18682473 7.03062429 -1.125 10.5625 C-4.04404918 21.99931199 -5.7109126 33.56050136 -7.29931641 45.24047852 C-7.39840805 45.94529861 -7.49749969 46.65011871 -7.59959412 47.376297 C-7.87148275 49.31332834 -8.13271457 51.2518468 -8.39331055 53.19042969 C-8.59351807 54.11758789 -8.79372559 55.04474609 -9 56 C-9.99 56.495 -9.99 56.495 -11 57 C-10.71020947 47.4369126 -9.47402293 38.40484512 -7.45996094 29.05566406 C-6.64533135 25.27182382 -5.90225104 21.54315076 -5.46484375 17.6953125 C-5.08395186 14.667382 -4.58000379 12.16467384 -3.5625 9.3125 C-3.29953125 8.56742187 -3.0365625 7.82234375 -2.765625 7.0546875 C-1.88301742 4.68605696 -0.97759588 2.33119019 0 0 Z " fill="#0D2E27" transform="translate(252,470)"/>
<path d="M0 0 C10.56 0 21.12 0 32 0 C31.67 0.66 31.34 1.32 31 2 C20.414969 3.70966091 9.62464873 2.84529029 -1 2 C-0.67 1.34 -0.34 0.68 0 0 Z " fill="#446659" transform="translate(908,1193)"/>
<path d="M0 0 C0.33 0.66 0.66 1.32 1 2 C0.34 1.67 -0.32 1.34 -1 1 C-0.67 0.67 -0.34 0.34 0 0 Z M-3 2 C-2.34 2.33 -1.68 2.66 -1 3 C-2.65 4.65 -4.3 6.3 -6 8 C-6.66 7.67 -7.32 7.34 -8 7 C-6.35 5.35 -4.7 3.7 -3 2 Z M-11 9 C-10.34 9.33 -9.68 9.66 -9 10 C-13.94001981 15.89067654 -18.96576343 21.20355555 -25 26 C-26.35147138 27.31494512 -27.69112542 28.64264858 -29 30 C-29 27 -29 27 -27.34765625 25.00708008 C-26.21650391 23.89949341 -26.21650391 23.89949341 -25.0625 22.76953125 C-24.25039063 21.96708984 -23.43828125 21.16464844 -22.6015625 20.33789062 C-21.74304688 19.50451172 -20.88453125 18.67113281 -20 17.8125 C-18.71222656 16.5450293 -18.71222656 16.5450293 -17.3984375 15.25195312 C-15.2721635 13.16111702 -13.13921536 11.07758017 -11 9 Z " fill="#0E2B26" transform="translate(346,324)"/>
<path d="M0 0 C4.13621084 3.3810038 7.81316569 6.66590534 11 11 C7.04 11 3.08 11 -1 11 C-0.34 9.68 0.32 8.36 1 7 C0.68873287 3.31796085 0.68873287 3.31796085 0 0 Z " fill="#30534B" transform="translate(1079,718)"/>
<path d="M0 0 C0.33 0.99 0.66 1.98 1 3 C-1.44931331 7.61601354 -3.22560769 9.20960288 -8 11 C-9.35827971 12.64639965 -10.69254251 14.31295807 -12 16 C-14.25 17.3125 -14.25 17.3125 -16 18 C-16.66 17.34 -17.32 16.68 -18 16 C-16.67935547 15.02160156 -16.67935547 15.02160156 -15.33203125 14.0234375 C-14.1585739 13.14099757 -12.98541255 12.25816393 -11.8125 11.375 C-11.23435547 10.94832031 -10.65621094 10.52164063 -10.06054688 10.08203125 C-6.09606411 7.08067141 -3.05620068 3.92528976 0 0 Z " fill="#4B695F" transform="translate(1157,889)"/>
<path d="M0 0 C0.33 0 0.66 0 1 0 C1.02945031 3.31248078 1.04694801 6.62492711 1.0625 9.9375 C1.07087891 10.86369141 1.07925781 11.78988281 1.08789062 12.74414062 C1.10836586 18.57958317 0.91119263 24.22911337 0 30 C-0.66 30.66 -1.32 31.32 -2 32 C-2.02714735 29.77090129 -2.04646254 27.54170633 -2.0625 25.3125 C-2.07990234 23.45044922 -2.07990234 23.45044922 -2.09765625 21.55078125 C-2.01405359 18.51098852 -1.60276353 15.95686364 -1 13 C-0.95770753 10.91709599 -0.95895706 8.83292901 -1 6.75 C-1.03739126 4.83369809 -1.04702061 2.91608981 -1 1 C-0.67 0.67 -0.34 0.34 0 0 Z " fill="#618977" transform="translate(1510,1241)"/>
<path d="M0 0 C3.04119394 1.35247098 5.06224575 2.84874791 7.34765625 5.2578125 C8.25547852 6.19560547 8.25547852 6.19560547 9.18164062 7.15234375 C10.44131006 8.47349238 11.69910809 9.79642773 12.95507812 11.12109375 C13.55900391 11.74371094 14.16292969 12.36632812 14.78515625 13.0078125 C15.33051025 13.58160645 15.87586426 14.15540039 16.43774414 14.74658203 C18.05617354 16.31289722 18.05617354 16.31289722 21 16 C21 17.32 21 18.64 21 20 C22.65 20.33 24.3 20.66 26 21 C25.67 21.66 25.34 22.32 25 23 C20.73005386 21.60674909 18.27916337 19.64346937 15.13671875 16.46484375 C13.80737305 15.12776367 13.80737305 15.12776367 12.45117188 13.76367188 C11.53916016 12.83103516 10.62714844 11.89839844 9.6875 10.9375 C8.74738159 9.9909036 7.80663235 9.04493325 6.86523438 8.09960938 C0 1.15390339 0 1.15390339 0 0 Z " fill="#304F47" transform="translate(1045,613)"/>
<path d="M0 0 C1.125 1.6875 1.125 1.6875 2 4 C1.1875 6.5 1.1875 6.5 0 9 C-0.165 9.7425 -0.33 10.485 -0.5 11.25 C-0.665 11.8275 -0.83 12.405 -1 13 C-1.99 13.495 -1.99 13.495 -3 14 C-3.12375 14.639375 -3.2475 15.27875 -3.375 15.9375 C-4 18 -4 18 -6.0625 19.25 C-6.701875 19.4975 -7.34125 19.745 -8 20 C-8 20.99 -8 21.98 -8 23 C-8.66 23 -9.32 23 -10 23 C-8.17977109 18.17959479 -5.84213878 13.65237211 -3.47851562 9.08398438 C-1.95796918 6.09777321 -0.60298643 3.31229531 0 0 Z " fill="#67877A" transform="translate(1120,1137)"/>
<path d="M0 0 C6.6 0 13.2 0 20 0 C20 4.29 20 8.58 20 13 C19.67 13 19.34 13 19 13 C18.505 8.05 18.505 8.05 18 3 C14.43954823 1.81318274 11.56191663 1.90310168 7.8125 1.9375 C6.54019531 1.94652344 5.26789063 1.95554687 3.95703125 1.96484375 C2.98121094 1.97644531 2.00539063 1.98804688 1 2 C0.67 1.34 0.34 0.68 0 0 Z " fill="#37554B" transform="translate(1105,780)"/>
<path d="M0 0 C1.2077558 3.62326739 0.54311128 4.64146369 -1 8 C1.97 8.33 4.94 8.66 8 9 C8 9.33 8 9.66 8 10 C2.39 10 -3.22 10 -9 10 C-8.34 9.01 -7.68 8.02 -7 7 C-6.34 7 -5.68 7 -5 7 C-4.731875 6.401875 -4.46375 5.80375 -4.1875 5.1875 C-3.01506533 3.02775192 -1.80630718 1.64209744 0 0 Z " fill="#324A47" transform="translate(671,719)"/>
<path d="M0 0 C0.66 0.33 1.32 0.66 2 1 C-5.52664267 7.84493197 -16.26589501 7.39551668 -26 7 C-26 6.67 -26 6.34 -26 6 C-24.19015625 5.72736328 -24.19015625 5.72736328 -22.34375 5.44921875 C-20.72909702 5.19575578 -19.11451751 4.94182447 -17.5 4.6875 C-16.31277344 4.51057617 -16.31277344 4.51057617 -15.1015625 4.33007812 C-11.04230603 3.68126254 -7.35930033 2.85234871 -3.53125 1.33203125 C-2.3659375 0.89246094 -1.200625 0.45289063 0 0 Z " fill="#688578" transform="translate(1076,1186)"/>
<path d="M0 0 C0.66 0.33 1.32 0.66 2 1 C1.38125 2.155 0.7625 3.31 0.125 4.5 C-1.94122218 8.60313625 -3.03935718 12.51700017 -4 17 C-4.99 17 -5.98 17 -7 17 C-7.66 18.32 -8.32 19.64 -9 21 C-8.47104903 15.60973772 -6.53666304 11.75770511 -3.9375 7.125 C-3.56044922 6.43664062 -3.18339844 5.74828125 -2.79492188 5.0390625 C-1.87106965 3.3550787 -0.93660333 1.67692533 0 0 Z " fill="#5E8679" transform="translate(257,405)"/>
<path d="M0 0 C0.99 0.66 1.98 1.32 3 2 C0.88094537 4.17277714 -1.24472878 6.33826908 -3.375 8.5 C-3.97828125 9.12003906 -4.5815625 9.74007812 -5.203125 10.37890625 C-5.78320312 10.96542969 -6.36328125 11.55195312 -6.9609375 12.15625 C-7.49509277 12.70087891 -8.02924805 13.24550781 -8.57958984 13.80664062 C-10 15 -10 15 -12 15 C-11.67 14.01 -11.34 13.02 -11 12 C-10.34 12 -9.68 12 -9 12 C-8.95875 11.443125 -8.9175 10.88625 -8.875 10.3125 C-7.55598589 6.82653414 -4.86969787 5.28404524 -2 3 C-1.34 2.01 -0.68 1.02 0 0 Z " fill="#28443F" transform="translate(680,636)"/>
<path d="M0 0 C1.74627478 2.61941217 2.38722388 4.03824877 3 7 C1.02 7.99 1.02 7.99 -1 9 C-0.34 9.33 0.32 9.66 1 10 C1 10.99 1 11.98 1 13 C0.34 13 -0.32 13 -1 13 C-1.33 14.65 -1.66 16.3 -2 18 C-2.66 18 -3.32 18 -4 18 C-3.31195504 11.80759538 -1.71951285 5.98044406 0 0 Z " fill="#5D796F" transform="translate(1174,851)"/>
<path d="M0 0 C0.66 0.33 1.32 0.66 2 1 C1.54625 1.4125 1.0925 1.825 0.625 2.25 C-1.05950374 4.06408095 -1.99265971 5.75285627 -3 8 C-3.99 8 -4.98 8 -6 8 C-6.33 8.99 -6.66 9.98 -7 11 C-8.84765625 12.82421875 -8.84765625 12.82421875 -11.0625 14.6875 C-11.79597656 15.31011719 -12.52945312 15.93273437 -13.28515625 16.57421875 C-14.13400391 17.27998047 -14.13400391 17.27998047 -15 18 C-15 15 -15 15 -13.62304688 13.2824707 C-12.99462891 12.66976318 -12.36621094 12.05705566 -11.71875 11.42578125 C-11.04199219 10.75869141 -10.36523438 10.09160156 -9.66796875 9.40429688 C-8.95253906 8.71400391 -8.23710937 8.02371094 -7.5 7.3125 C-6.42685547 6.2596582 -6.42685547 6.2596582 -5.33203125 5.18554688 C-3.56120423 3.45013639 -1.78376544 1.7220927 0 0 Z " fill="#567F72" transform="translate(324,317)"/>
<path d="M0 0 C0 3 0 3 -1.9765625 5.3046875 C-2.85054687 6.15289063 -3.72453125 7.00109375 -4.625 7.875 C-5.5325 8.75671875 -6.44 9.6384375 -7.375 10.546875 C-10.16994208 13.15881492 -12.99860681 15.63047906 -16 18 C-16.66 17.67 -17.32 17.34 -18 17 C-17.40832031 16.48050781 -16.81664062 15.96101562 -16.20703125 15.42578125 C-12.01456131 11.72573845 -7.90007957 8.01151042 -4 4 C-2.66666667 2.66666667 -1.33333333 1.33333333 0 0 Z " fill="#C7DAD6" transform="translate(654,666)"/>
<path d="M0 0 C1.32 0 2.64 0 4 0 C2.59155282 3.21524305 0.89655214 5.32183868 -1.625 7.75 C-2.57246094 8.67039062 -2.57246094 8.67039062 -3.5390625 9.609375 C-4.02117188 10.06828125 -4.50328125 10.5271875 -5 11 C-5.99 10.67 -6.98 10.34 -8 10 C-6.58226538 6.45566346 -5.32387762 5.66193881 -2 4 C-0.73195434 1.9664052 -0.73195434 1.9664052 0 0 Z " fill="#25423D" transform="translate(663,652)"/>
<path d="M0 0 C1.155 0.268125 2.31 0.53625 3.5 0.8125 C10.62758741 2.40276428 17.8188494 3.67831584 25 5 C23 7 23 7 20.25 7.25 C16.81774249 6.98598019 14.24013536 6.14357719 11 5 C8.65574241 4.52004202 6.31012461 4.07303203 3.953125 3.66015625 C2 3 2 3 0 0 Z " fill="#294A41" transform="translate(847,914)"/>
<path d="M0 0 C0.99 0.33 1.98 0.66 3 1 C2.67 1.99 2.34 2.98 2 4 C1.34 4 0.68 4 0 4 C0 4.66 0 5.32 0 6 C-0.639375 6.103125 -1.27875 6.20625 -1.9375 6.3125 C-2.618125 6.539375 -3.29875 6.76625 -4 7 C-4.33 7.99 -4.66 8.98 -5 10 C-7.0625 11.6875 -7.0625 11.6875 -9 13 C-9.66 12.67 -10.32 12.34 -11 12 C-10.54109375 11.55269531 -10.0821875 11.10539062 -9.609375 10.64453125 C-6.16447701 7.25029352 -2.92744915 3.86423288 0 0 Z " fill="#5F7F72" transform="translate(1109,1160)"/>
<path d="M0 0 C0.66 0.33 1.32 0.66 2 1 C1.566875 2.10408203 1.566875 2.10408203 1.125 3.23046875 C0.75375 4.20628906 0.3825 5.18210937 0 6.1875 C-0.37125 7.15042969 -0.7425 8.11335938 -1.125 9.10546875 C-2.15270368 11.92391732 -2.15270368 11.92391732 -1.875 14.67578125 C-2 17 -2 17 -4 18.8125 C-4.66 19.204375 -5.32 19.59625 -6 20 C-4.85210257 12.90116066 -2.88549626 6.58341381 0 0 Z " fill="#60897B" transform="translate(241,440)"/>
<path d="M0 0 C3.25696479 0.41755959 4.63443291 0.63443291 7 3 C1.94997778 4.03590199 -2.87416389 4.10251672 -8 4 C-8 3.34 -8 2.68 -8 2 C-6.865625 1.855625 -5.73125 1.71125 -4.5625 1.5625 C-1.19222799 1.38828522 -1.19222799 1.38828522 0 0 Z " fill="#395B53" transform="translate(879,865)"/>
<path d="M0 0 C0.66 0.33 1.32 0.66 2 1 C-2.43322068 5.13767263 -7.39879629 6.95528874 -13 9 C-12 6 -12 6 -9.34765625 4.359375 C-8.26355469 3.82828125 -7.17945313 3.2971875 -6.0625 2.75 C-4.98097656 2.20859375 -3.89945312 1.6671875 -2.78515625 1.109375 C-1.40650391 0.56023437 -1.40650391 0.56023437 0 0 Z " fill="#5D8678" transform="translate(403,264)"/>
<path d="M0 0 C0.66 0.33 1.32 0.66 2 1 C2 5 2 5 0.46875 6.703125 C-0.1809375 7.21359375 -0.830625 7.7240625 -1.5 8.25 C-2.1496875 8.77078125 -2.799375 9.2915625 -3.46875 9.828125 C-3.9740625 10.21484375 -4.479375 10.6015625 -5 11 C-5.33 10.34 -5.66 9.68 -6 9 C-4.02 6.03 -2.04 3.06 0 0 Z " fill="#61897A" transform="translate(272,379)"/>
<path d="M0 0 C0 0.66 0 1.32 0 2 C-3.46153846 5 -3.46153846 5 -6 5 C-6.33 5.99 -6.66 6.98 -7 8 C-7.66 8 -8.32 8 -9 8 C-9.33 8.66 -9.66 9.32 -10 10 C-11.64363134 10.72159424 -13.31050386 11.39351421 -15 12 C-12.03693129 8.94433539 -8.98279839 6.02864172 -5.8125 3.1875 C-5.13832031 2.58292969 -4.46414063 1.97835938 -3.76953125 1.35546875 C-2 0 -2 0 0 0 Z " fill="#5D8679" transform="translate(344,302)"/>
<path d="M0 0 C0.66 0.33 1.32 0.66 2 1 C1.38125 1.2475 0.7625 1.495 0.125 1.75 C-2.14291141 2.81460222 -2.14291141 2.81460222 -2.9375 5 C-4 7 -4 7 -6.375 8.3125 C-9.16653942 9.04361747 -10.30861211 8.79596365 -13 8 C-12.14535156 7.50628906 -11.29070313 7.01257813 -10.41015625 6.50390625 C-9.30542969 5.86324219 -8.20070313 5.22257813 -7.0625 4.5625 C-5.96035156 3.92441406 -4.85820313 3.28632812 -3.72265625 2.62890625 C-1.1716429 1.25289773 -1.1716429 1.25289773 0 0 Z " fill="#42615B" transform="translate(707,902)"/>
<path d="M0 0 C0.66 0 1.32 0 2 0 C1.94011859 2.12579013 1.85137256 4.25078413 1.75 6.375 C1.70359375 7.55835938 1.6571875 8.74171875 1.609375 9.9609375 C1 13 1 13 -1.046875 14.4140625 C-2.01367188 14.70410156 -2.01367188 14.70410156 -3 15 C-2.69052329 13.06201479 -2.37731166 11.12462574 -2.0625 9.1875 C-1.88847656 8.10855469 -1.71445313 7.02960938 -1.53515625 5.91796875 C-1 3 -1 3 0 0 Z " fill="#648D7E" transform="translate(231,471)"/>
<path d="M0 0 C0.66 0.33 1.32 0.66 2 1 C-0.35662521 3.65023753 -2.75254154 5.03467782 -5.9375 6.5625 C-6.79214844 6.97628906 -7.64679688 7.39007813 -8.52734375 7.81640625 C-9.34332031 8.20699219 -10.15929687 8.59757812 -11 9 C-12.33468103 9.66396443 -13.66852538 10.32962879 -15 11 C-15 10.34 -15 9.68 -15 9 C-12.56943154 7.33526758 -10.15685489 5.80712601 -7.625 4.3125 C-6.92632812 3.88388672 -6.22765625 3.45527344 -5.5078125 3.01367188 C-3.71097069 1.94074999 -1.85830122 0.96255827 0 0 Z " fill="#0F2E27" transform="translate(401,286)"/>
<path d="M0 0 C0.33 0 0.66 0 1 0 C1.99844215 4.99221073 2.17036684 8.3337113 0 13 C-0.99 13.66 -1.98 14.32 -3 15 C-2.44854729 9.76119922 -1.57077907 5.02649303 0 0 Z " fill="#5C7B6D" transform="translate(1124,1122)"/>
<path d="M0 0 C0 0.66 0 1.32 0 2 C-1.65532623 3.01866229 -3.32260138 4.01810813 -5 5 C-5.33 5.66 -5.66 6.32 -6 7 C-8.31 7 -10.62 7 -13 7 C-4.25 0 -4.25 0 0 0 Z " fill="#547066" transform="translate(1139,906)"/>
<path d="M0 0 C3 1 3 1 5 3 C3.3962669 3.64690922 1.79199694 4.29248764 0.1875 4.9375 C-1.15248047 5.47697266 -1.15248047 5.47697266 -2.51953125 6.02734375 C-4.3270909 6.73613486 -6.15807409 7.3860247 -8 8 C-8 7.34 -8 6.68 -8 6 C-6.02678947 4.6273318 -4.02456848 3.29572383 -2 2 C-1.34 1.34 -0.68 0.68 0 0 Z " fill="#294841" transform="translate(735,585)"/>
<path d="M0 0 C0.33 0.66 0.66 1.32 1 2 C-0.328125 4.49609375 -0.328125 4.49609375 -2.25 7.4375 C-3.18585938 8.88962891 -3.18585938 8.88962891 -4.140625 10.37109375 C-5.6486471 12.50323423 -7.07911316 14.25104439 -9 16 C-8.47515308 11.44299575 -6.68492697 8.807126 -3.9375 5.1875 C-3.20402344 4.21167969 -2.47054688 3.23585938 -1.71484375 2.23046875 C-1.14894531 1.49441406 -0.58304687 0.75835937 0 0 Z " fill="#102F28" transform="translate(289,388)"/>
<path d="M0 0 C0.66 0.33 1.32 0.66 2 1 C-2.81395349 6.21511628 -2.81395349 6.21511628 -7 7 C-8.68991979 7.9601817 -10.36209288 8.95355934 -12 10 C-10.52296046 6.14794802 -8.51297709 4.74524676 -5 2.6875 C-4.113125 2.15511719 -3.22625 1.62273437 -2.3125 1.07421875 C-1.549375 0.71972656 -0.78625 0.36523438 0 0 Z " fill="#5D8678" transform="translate(377,278)"/>
<path d="M0 0 C0.66 0.66 1.32 1.32 2 2 C-2.455 4.97 -2.455 4.97 -7 8 C-6.67 6.35 -6.34 4.7 -6 3 C-2.9375 1.1875 -2.9375 1.1875 0 0 Z " fill="#719B88" transform="translate(1387,1467)"/>
<path d="M0 0 C0.66 0.33 1.32 0.66 2 1 C-3.14285714 7.57142857 -3.14285714 7.57142857 -7 9 C-7.66 8.34 -8.32 7.68 -9 7 C-6.03 4.69 -3.06 2.38 0 0 Z " fill="#557268" transform="translate(1148,898)"/>
<path d="M0 0 C3.68465905 3.28987415 5.77894182 6.63720714 8 11 C8 11.99 8 12.98 8 14 C7.34 14 6.68 14 6 14 C4.99515796 12.04414675 3.99626195 10.08523763 3 8.125 C2.1646875 6.48917969 2.1646875 6.48917969 1.3125 4.8203125 C0 2 0 2 0 0 Z " fill="#2A4742" transform="translate(582,870)"/>
<path d="M0 0 C0.66 0 1.32 0 2 0 C0.68544658 2.93246533 -0.74873617 4.74873617 -3 7 C-3.515625 7.86625 -4.03125 8.7325 -4.5625 9.625 C-6 12 -6 12 -8 13 C-6.44759763 8.03231242 -3.48945219 3.82132943 0 0 Z " fill="#638C7E" transform="translate(282,365)"/>
<path d="M0 0 C0.66 0.33 1.32 0.66 2 1 C0.55746343 4.36591866 -1.33264727 6.51047079 -4 9 C-4.99 8.67 -5.98 8.34 -7 8 C-6.02133662 6.85373678 -5.04205413 5.70800212 -4.0625 4.5625 C-3.51722656 3.92441406 -2.97195313 3.28632812 -2.41015625 2.62890625 C-1.63204305 1.73008851 -0.84063472 0.84063472 0 0 Z " fill="#2F4A45" transform="translate(591,724)"/>
<path d="M0 0 C0.66 0.33 1.32 0.66 2 1 C0.55922954 4.36179774 -1.24750021 6.59156268 -4 9 C-4.66 9 -5.32 9 -6 9 C-6 8.01 -6 7.02 -6 6 C-5.34 6 -4.68 6 -4 6 C-4 5.34 -4 4.68 -4 4 C-3.34 4 -2.68 4 -2 4 C-1.34 2.68 -0.68 1.36 0 0 Z " fill="#29453F" transform="translate(716,601)"/>
<path d="M0 0 C0.625 1.875 0.625 1.875 1 4 C0.34 4.66 -0.32 5.32 -1 6 C-1.64767793 8.57061311 -1.64767793 8.57061311 -2 11 C-2.99 11.33 -3.98 11.66 -5 12 C-5.33 11.34 -5.66 10.68 -6 10 C-4.78515625 7.6171875 -4.78515625 7.6171875 -3.0625 4.875 C-2.21365234 3.50988281 -2.21365234 3.50988281 -1.34765625 2.1171875 C-0.90292969 1.41851563 -0.45820312 0.71984375 0 0 Z " fill="#57766B" transform="translate(1164,878)"/>
<path d="M0 0 C0.66 0 1.32 0 2 0 C3 1 4 2 5 3 C7.09989652 4.17574711 7.09989652 4.17574711 9 5 C9 5.66 9 6.32 9 7 C4.71193127 6.52354792 2.73352513 5.34097516 0 2 C0 1.34 0 0.68 0 0 Z " fill="#294541" transform="translate(634,856)"/>
<path d="M0 0 C2 3 2 3 1.625 6.1875 C1.41875 7.115625 1.2125 8.04375 1 9 C1.66 9.33 2.32 9.66 3 10 C2.42655063 12.86724686 2.1385485 13.8614515 0 16 C0 10.72 0 5.44 0 0 Z " fill="#649080" transform="translate(220,592)"/>
<path d="M0 0 C0.6875 1.6875 0.6875 1.6875 1 4 C-0.69759868 7.66323925 -2.63829241 9.79750193 -6 12 C-4.68139111 7.38486888 -2.78644563 3.90102388 0 0 Z " fill="#587E73" transform="translate(264,392)"/>
<path d="M0 0 C0.66 0.33 1.32 0.66 2 1 C-0.21928194 3.90802461 -1.92969143 5.95312762 -5 8 C-5.99 7.67 -6.98 7.34 -8 7 C-5.36 4.69 -2.72 2.38 0 0 Z " fill="#0E2D26" transform="translate(355,316)"/>
<path d="M0 0 C-1.15173355 2.46800047 -2.04783565 4.04783565 -4 6 C-5.98821313 6.39764263 -7.98944339 6.73775349 -10 7 C-3.24137931 0 -3.24137931 0 0 0 Z " fill="#618173" transform="translate(1096,1175)"/>
<path d="M0 0 C4.95 0 9.9 0 15 0 C14 2 14 2 12.265625 2.68359375 C9.52432073 3.06643107 7.44585806 2.66552088 4.75 2.0625 C3.85796875 1.86785156 2.9659375 1.67320312 2.046875 1.47265625 C1.37140625 1.31667969 0.6959375 1.16070313 0 1 C0 0.67 0 0.34 0 0 Z " fill="#23453D" transform="translate(756,919)"/>
<path d="M0 0 C1.125 1.6875 1.125 1.6875 2 4 C1.06552903 7.48302817 -0.28005005 9.65095231 -3 12 C-2.25749403 7.91621717 -1.17076699 3.98060777 0 0 Z " fill="#5D7E6F" transform="translate(1120,1137)"/>
<path d="M0 0 C0.66 0 1.32 0 2 0 C1.46930939 3.82097239 0.50298434 6.06171403 -2 9 C-2.33 7.35 -2.66 5.7 -3 4 C-2.34 4 -1.68 4 -1 4 C-0.67 2.68 -0.34 1.36 0 0 Z " fill="#3E5E56" transform="translate(1013,847)"/>
<path d="M0 0 C0.33 0.99 0.66 1.98 1 3 C-0.4375 5.6875 -0.4375 5.6875 -2 8 C-2.99 7.67 -3.98 7.34 -5 7 C-3.70700306 4.11562221 -2.34058637 2.12780579 0 0 Z " fill="#3E5854" transform="translate(671,719)"/>
<path d="M0 0 C-3.82089454 2.22885515 -7.68638323 3.16510643 -12 4 C-12.66 3.34 -13.32 2.68 -14 2 C-9.126739 0.4087311 -5.19209404 -0.21192221 0 0 Z " fill="#588173" transform="translate(481,240)"/>
<path d="M0 0 C0.66 0 1.32 0 2 0 C0.71480435 2.86697492 -0.57129254 4.97607712 -3 7 C-3.66 7 -4.32 7 -5 7 C-5.33 6.01 -5.66 5.02 -6 4 C-5.38125 3.71125 -4.7625 3.4225 -4.125 3.125 C-1.86674235 2.06279958 -1.86674235 2.06279958 0 0 Z " fill="#28443F" transform="translate(602,714)"/>
<path d="M0 0 C0 0.66 0 1.32 0 2 C-1.28650706 2.69710731 -2.57940665 3.38242876 -3.875 4.0625 C-4.95394531 4.63677734 -4.95394531 4.63677734 -6.0546875 5.22265625 C-6.69664063 5.47917969 -7.33859375 5.73570313 -8 6 C-8.66 5.67 -9.32 5.34 -10 5 C-4.03225806 0 -4.03225806 0 0 0 Z " fill="#709B88" transform="translate(1345,1494)"/>
<path d="M0 0 C0.66 0.33 1.32 0.66 2 1 C-1.12621626 4.39417765 -3.56541027 6.6062718 -8 8 C-7.04578192 6.85073734 -6.08647955 5.70569459 -5.125 4.5625 C-4.59132813 3.92441406 -4.05765625 3.28632812 -3.5078125 2.62890625 C-2 1 -2 1 0 0 Z " fill="#BBCECB" transform="translate(644,676)"/>
<path d="M0 0 C0.99 0.33 1.98 0.66 3 1 C2.0479279 2.00596297 1.08812654 3.00461563 0.125 4 C-0.40867187 4.556875 -0.94234375 5.11375 -1.4921875 5.6875 C-3 7 -3 7 -5 7 C-3.70700306 4.11562221 -2.34058637 2.12780579 0 0 Z " fill="#233F39" transform="translate(747,645)"/>
<path d="M0 0 C0.66 0.33 1.32 0.66 2 1 C0.95125002 3.62187494 0.35068687 4.79371361 -2.125 6.25 C-2.74375 6.4975 -3.3625 6.745 -4 7 C-4 6.01 -4 5.02 -4 4 C-3.34 4 -2.68 4 -2 4 C-1.34 2.68 -0.68 1.36 0 0 Z " fill="#28453F" transform="translate(724,593)"/>
<path d="M0 0 C0.33 0.66 0.66 1.32 1 2 C0.22265625 3.7265625 0.22265625 3.7265625 -0.9375 5.625 C-1.618125 6.73875 -2.29875 7.8525 -3 9 C-3.66 9 -4.32 9 -5 9 C-3.90931332 5.22454612 -3.0916909 2.52956528 0 0 Z " fill="#294D45" transform="translate(782,1005)"/>
<path d="M0 0 C2.9719385 1.12451727 5.33440687 2.22293791 8 4 C8 4.66 8 5.32 8 6 C5.03 5.505 5.03 5.505 2 5 C2 4.34 2 3.68 2 3 C1.34 2.67 0.68 2.34 0 2 C0 1.34 0 0.68 0 0 Z " fill="#2D4F46" transform="translate(826,902)"/>
<path d="M0 0 C0.95465783 2.16967689 1.14401212 3.56328793 0.3984375 5.82421875 C-0.35870385 7.5684743 -1.17609198 9.28627131 -2 11 C-2.95465783 8.83032311 -3.14401212 7.43671207 -2.3984375 5.17578125 C-1.64129615 3.4315257 -0.82390802 1.71372869 0 0 Z " fill="#33564F" transform="translate(798,843)"/>
<path d="M0 0 C1 3 1 3 0.0625 5.1875 C-0.4634375 6.0846875 -0.4634375 6.0846875 -1 7 C-0.34 7.33 0.32 7.66 1 8 C-1.475 9.485 -1.475 9.485 -4 11 C-3.52269162 9.5410574 -3.04308958 8.08286504 -2.5625 6.625 C-2.29566406 5.81289063 -2.02882812 5.00078125 -1.75390625 4.1640625 C-1 2 -1 2 0 0 Z " fill="#61887B" transform="translate(247,426)"/>
<path d="M0 0 C0.99 0.33 1.98 0.66 3 1 C0.69 3.31 -1.62 5.62 -4 8 C-4.33 7.01 -4.66 6.02 -5 5 C-3.35 3.35 -1.7 1.7 0 0 Z " fill="#729B88" transform="translate(1423,1436)"/>
<path d="M0 0 C-2.3125 2.0625 -2.3125 2.0625 -5 4 C-5.99 3.67 -6.98 3.34 -8 3 C-6 0 -6 0 -4 -0.75 C-2 -1 -2 -1 0 0 Z " fill="#2A4D45" transform="translate(806,985)"/>
<path d="M0 0 C0.99 0.33 1.98 0.66 3 1 C-0.17320782 4.53586014 -2.16743695 6.58578031 -7 7 C-4.66666667 4.66666667 -2.33333333 2.33333333 0 0 Z " fill="#4D6A63" transform="translate(929,898)"/>
<path d="M0 0 C2.00720923 0.28674418 4.0085944 0.61866701 6 1 C5.01 2.485 5.01 2.485 4 4 C2.68 4 1.36 4 0 4 C-0.33 3.01 -0.66 2.02 -1 1 C-0.67 0.67 -0.34 0.34 0 0 Z " fill="#20443C" transform="translate(783,859)"/>
<path d="M0 0 C0.66 0.33 1.32 0.66 2 1 C0.35 2.98 -1.3 4.96 -3 7 C-3.99 6.67 -4.98 6.34 -6 6 C-4.02 4.02 -2.04 2.04 0 0 Z " fill="#334E49" transform="translate(754,638)"/>
<path d="M0 0 C1.32 0.66 2.64 1.32 4 2 C2 4 2 4 -1.125 4.125 C-2.548125 4.063125 -2.548125 4.063125 -4 4 C-3.67 3.34 -3.34 2.68 -3 2 C-2.01 2 -1.02 2 0 2 C0 1.34 0 0.68 0 0 Z " fill="#496C5C" transform="translate(1051,1138)"/>
<path d="M0 0 C1.32 0.33 2.64 0.66 4 1 C3.67 3.31 3.34 5.62 3 8 C1.0549 5.08235 0.54723683 3.37462715 0 0 Z " fill="#57746B" transform="translate(975,1016)"/>
<path d="M0 0 C-2.46278801 2.46278801 -4.70676982 2.99771255 -8 4 C-8 3.01 -8 2.02 -8 1 C-5.07175348 0.02391783 -3.04386724 -0.08226668 0 0 Z " fill="#5C8679" transform="translate(445,249)"/>
</svg>
